<?xml version="1.0" encoding="UTF-8" standalone="no"?>
<!-- Created with Inkscape (http://www.inkscape.org/) -->

<svg
   width="21.277014mm"
   height="19.923029mm"
   viewBox="0 0 21.277014 19.923029"
   version="1.1"
   id="svg5"
   inkscape:version="1.1.1 (1:1.1+202109281949+c3084ef5ed)"
   sodipodi:docname="hive.svg"
   xmlns:inkscape="http://www.inkscape.org/namespaces/inkscape"
   xmlns:sodipodi="http://sodipodi.sourceforge.net/DTD/sodipodi-0.dtd"
   xmlns="http://www.w3.org/2000/svg"
   xmlns:svg="http://www.w3.org/2000/svg">
  <sodipodi:namedview
     id="namedview7"
     pagecolor="#ffffff"
     bordercolor="#666666"
     borderopacity="1.0"
     inkscape:pageshadow="2"
     inkscape:pageopacity="0.0"
     inkscape:pagecheckerboard="false"
     inkscape:document-units="mm"
     showgrid="false"
     inkscape:zoom="5.7335872"
     inkscape:cx="68.107449"
     inkscape:cy="-6.1043809"
     inkscape:window-width="3840"
     inkscape:window-height="2123"
     inkscape:window-x="1920"
     inkscape:window-y="0"
     inkscape:window-maximized="1"
     inkscape:current-layer="layer1"
     fit-margin-top="0"
     fit-margin-left="0"
     fit-margin-right="0"
     fit-margin-bottom="0"
     showborder="true" />
  <defs
     id="defs2" />
  <g
     inkscape:label="Layer 1"
     inkscape:groupmode="layer"
     id="layer1"
     transform="translate(-12.361624,-8.2697986)">
    <g
       id="g6561"
       transform="matrix(0.18142991,0,0,0.18142991,11.748614,5.9884238)">
      <path
         style="fill:#cecccc;stroke-width:0.264583"
         d="m 75.90018,122.04449 c -2.136833,-0.44582 -4.498419,-1.37792 -6.500331,-2.56564 -1.951712,-1.15793 -5.529646,-4.72426 -6.643407,-6.62186 -0.483243,-0.82334 -1.197618,-2.37026 -1.5875,-3.4376 l -0.708875,-1.94061 -0.07923,-11.457945 -0.07923,-11.457945 12.117771,0.09419 c 11.447297,0.08898 12.215604,0.125076 13.885969,0.652425 5.320118,1.679607 9.99553,5.606145 12.278824,10.312085 1.162364,2.39567 1.686499,4.84726 1.686499,7.88844 0,1.30969 -0.17191,3.19261 -0.382037,4.18427 -0.782395,3.69251 -3.248491,7.5422 -6.560728,10.2416 -1.902412,1.55043 -5.178872,3.24073 -7.467841,3.85261 -2.18218,0.58334 -7.709943,0.72541 -9.959888,0.25598 z M 9.6606173,96.499675 C 6.2405744,89.660802 3.4423574,83.885774 3.4423574,83.66628 c 0,-0.219493 2.798217,-5.994521 6.2182599,-12.833394 L 15.878877,58.398572 h 15.749181 15.749181 l 6.210684,12.523269 c 3.415876,6.887797 6.210686,12.643758 6.210686,12.791025 0,0.147267 -2.797511,5.882267 -6.21669,12.744442 L 47.365232,108.93399 H 31.622055 15.878877 Z M 54.37465,70.833989 l -6.345592,-12.7 6.345592,-12.7 6.345593,-12.7 h 15.482533 15.482533 l 6.345593,12.7 6.345588,12.7 -6.345588,12.7 -6.345593,12.7 H 76.202776 60.720243 Z m 62.88466,-11.724865 c -1.20273,-1.280247 -0.30818,-3.356385 1.44617,-3.356385 1.02252,0 1.9473,0.959993 1.9473,2.021454 0,1.712303 -2.21891,2.585185 -3.39347,1.334931 z m -12.48153,-1.239719 v -1.322916 h 5.55625 5.55625 v 1.322916 1.322917 h -5.55625 -5.55625 z M 45.907984,57.274662 c -0.582084,-0.313486 -4.90917,-2.448486 -9.615747,-4.744445 -4.706578,-2.295962 -9.305703,-4.70844 -10.220275,-5.361064 -2.695919,-1.92377 -4.776905,-4.404781 -6.226744,-7.423706 -1.758065,-3.660727 -2.213442,-5.763948 -2.051637,-9.475771 0.102972,-2.362184 0.276995,-3.36023 0.86206,-4.944021 1.165864,-3.156034 2.185216,-4.73687 4.623541,-7.170299 1.811357,-1.80772 2.73993,-2.501534 4.516945,-3.374984 1.23027,-0.604712 3.189356,-1.344727 4.353523,-1.644478 2.910271,-0.749341 6.925614,-0.748571 9.789583,0.0019 6.384404,1.67291 11.527344,5.908868 14.0216,11.548828 1.711283,3.86951 2.177111,8.318456 1.268042,12.110576 -0.31601,1.31822 -1.880269,4.771323 -5.170977,11.414939 -2.594854,5.23875 -4.801987,9.549194 -4.904746,9.578761 -0.102758,0.02957 -0.663085,-0.202726 -1.245168,-0.516213 z M 91.680902,32.311891 c -0.582084,-0.348588 -1.018776,-0.783175 -0.970429,-0.965746 0.07132,-0.269332 5.228561,-9.372815 5.484882,-9.681836 0.121428,-0.146396 2.497005,1.312582 2.497005,1.533555 0,0.36877 -5.457587,9.6361 -5.708007,9.69256 -0.134816,0.03039 -0.721368,-0.229944 -1.303451,-0.578533 z M 97.680146,21.53829 c -1.223973,-1.302859 -0.359547,-3.356385 1.412859,-3.356385 1.744565,0 2.633535,2.204783 1.368245,3.393463 -0.81344,0.764183 -2.043768,0.74778 -2.781104,-0.03708 z"
         id="path6591" />
      <path
         style="fill:#d2b695;stroke-width:0.264583"
         d="m 76.530211,122.13393 c -4.64503,-0.77381 -9.588516,-3.75438 -12.40916,-7.48183 -0.673018,-0.88939 -1.623941,-2.45392 -2.113163,-3.47674 -1.5553,-3.25167 -1.670405,-4.35638 -1.675519,-16.080654 l -0.0046,-10.531988 11.972396,0.09396 c 11.529081,0.09048 12.045873,0.116113 13.956771,0.692269 5.207471,1.570112 9.826927,5.443895 12.19154,10.223587 0.575937,1.164167 1.221539,2.950105 1.434674,3.96875 0.49573,2.369306 0.49444,5.580646 -0.0032,7.929906 -0.770422,3.63704 -3.218757,7.64683 -6.134953,10.0476 -3.099398,2.55159 -6.289344,4.04507 -9.886608,4.62872 -1.989006,0.32272 -5.346801,0.31649 -7.328186,-0.0136 z m 9.144776,-1.32029 c 2.434111,-0.61465 5.061376,-1.98749 7.230316,-3.77811 2.853889,-2.35609 5.023448,-5.71609 5.928223,-9.18103 0.581562,-2.22717 0.5798,-6.43833 -0.0037,-8.689888 -0.547579,-2.113174 -1.719469,-4.485286 -3.12355,-6.322605 C 94.1786,90.842892 91.498908,88.69575 89.035055,87.496563 85.22629,85.642789 84.807473,85.591833 72.274616,85.457412 l -11.204187,-0.120174 0.122394,10.541603 c 0.103489,8.913419 0.192437,10.784229 0.575881,12.112449 0.587627,2.03548 1.778236,4.37714 3.151905,6.19907 2.118842,2.81027 6.084284,5.5272 9.512142,6.51726 3.416609,0.98682 7.597944,1.02625 11.242222,0.10602 z M 9.6931203,96.301942 3.3787685,83.669895 9.6922128,71.034233 16.005657,58.398572 h 15.613919 15.613917 l 6.314353,12.632047 6.314353,12.632047 -6.313445,12.635662 -6.313446,12.635662 H 31.621391 16.007472 Z M 54.37465,70.833989 l -6.345592,-12.7 6.345592,-12.7 6.345593,-12.7 h 15.482533 15.482533 l 6.345593,12.7 6.345588,12.7 -6.345588,12.7 -6.345593,12.7 H 76.202776 60.720243 Z m 62.88466,-11.724865 c -1.20273,-1.280247 -0.30818,-3.356385 1.44617,-3.356385 1.02252,0 1.9473,0.959993 1.9473,2.021454 0,1.712303 -2.21891,2.585185 -3.39347,1.334931 z m -12.48153,-1.239719 v -1.322916 h 5.55625 5.55625 v 1.322916 1.322917 h -5.55625 -5.55625 z M 37.93745,53.267979 c -5.111395,-2.489685 -10.040072,-4.991185 -10.952612,-5.558894 -2.139182,-1.330819 -4.660126,-3.812463 -6.035137,-5.941046 -1.274853,-1.973535 -2.524564,-5.084424 -2.931243,-7.296706 -0.440197,-2.394617 -0.349572,-5.383049 0.232227,-7.657861 0.286454,-1.120027 1.026672,-3.014307 1.644928,-4.209511 0.827134,-1.599005 1.685588,-2.734831 3.249486,-4.299417 1.168961,-1.169477 2.813427,-2.511886 3.654369,-2.983131 3.239701,-1.815461 6.559611,-2.695757 10.166644,-2.695757 2.887811,0 5.927124,0.632508 8.501412,1.76922 2.357911,1.041167 4.854845,2.830917 6.689767,4.795088 2.680767,2.869589 4.354127,6.081448 5.170882,9.925027 0.527405,2.481917 0.34399,6.303614 -0.417359,8.696307 -0.309769,0.973511 -2.614472,5.868024 -5.121566,10.876698 L 47.2309,57.794674 Z M 51.067359,48.06853 c 2.255573,-4.650201 4.385352,-9.31822 4.732845,-10.373373 0.498923,-1.514968 0.634281,-2.502758 0.643586,-4.696585 0.01352,-3.187403 -0.442349,-5.22425 -1.809713,-8.085936 -1.879023,-3.932512 -4.94565,-7.000781 -8.990677,-8.995495 -1.309687,-0.645842 -3.155156,-1.381615 -4.101042,-1.63505 -2.349169,-0.629422 -7.192896,-0.626733 -9.525,0.0053 -2.816548,0.76331 -5.801579,2.336751 -7.610702,4.011679 -1.962855,1.817258 -3.797514,4.490789 -4.665558,6.798819 -0.856678,2.27781 -1.31189,5.478185 -1.08309,7.614685 0.587082,5.482082 3.83995,10.932657 8.278458,13.871559 0.97548,0.645901 5.821726,3.145269 10.769434,5.554149 4.947709,2.408881 9.055365,4.380997 9.128125,4.382479 0.07276,0.0016 1.977761,-3.802017 4.233334,-8.45222 z m 40.81198,-15.748916 c -0.618464,-0.370673 -1.124479,-0.769297 -1.124479,-0.88583 0,-0.204387 5.170704,-9.250361 5.443413,-9.52307 0.130112,-0.130111 2.494087,1.056704 2.494087,1.252136 0,0.111667 -5.585741,9.837016 -5.647695,9.833219 -0.02246,-0.0013 -0.546862,-0.305781 -1.165326,-0.676455 z M 97.680146,21.53829 c -0.814033,-0.866499 -0.759878,-2.114443 0.121854,-2.808014 0.383426,-0.301604 0.962681,-0.548371 1.287235,-0.548371 0.324554,0 0.903809,0.246767 1.287235,0.548371 0.49789,0.391636 0.69714,0.794377 0.69714,1.409087 0,1.774314 -2.191917,2.677914 -3.393464,1.398927 z"
         id="path6589" />
      <path
         style="fill:#c7b478;stroke-width:0.264583"
         d="m 76.530211,122.13393 c -4.64503,-0.77381 -9.588516,-3.75438 -12.40916,-7.48183 -0.673018,-0.88939 -1.623941,-2.45392 -2.113163,-3.47674 -1.5553,-3.25167 -1.670405,-4.35638 -1.675519,-16.080654 l -0.0046,-10.531988 11.972396,0.09396 c 11.529081,0.09048 12.045873,0.116113 13.956771,0.692269 5.207471,1.570112 9.826927,5.443895 12.19154,10.223587 0.575937,1.164167 1.221539,2.950105 1.434674,3.96875 0.49573,2.369306 0.49444,5.580646 -0.0032,7.929906 -0.770422,3.63704 -3.218757,7.64683 -6.134953,10.0476 -3.099398,2.55159 -6.289344,4.04507 -9.886608,4.62872 -1.989006,0.32272 -5.346801,0.31649 -7.328186,-0.0136 z m 9.144776,-1.32029 c 2.434111,-0.61465 5.061376,-1.98749 7.230316,-3.77811 2.853889,-2.35609 5.023448,-5.71609 5.928223,-9.18103 0.581562,-2.22717 0.5798,-6.43833 -0.0037,-8.689888 -0.547579,-2.113174 -1.719469,-4.485286 -3.12355,-6.322605 C 94.1786,90.842892 91.498908,88.69575 89.035055,87.496563 85.22629,85.642789 84.807473,85.591833 72.274616,85.457412 l -11.204187,-0.120174 0.122394,10.541603 c 0.103489,8.913419 0.192437,10.784229 0.575881,12.112449 0.587627,2.03548 1.778236,4.37714 3.151905,6.19907 2.118842,2.81027 6.084284,5.5272 9.512142,6.51726 3.416609,0.98682 7.597944,1.02625 11.242222,0.10602 z M 9.6931203,96.301942 3.3787685,83.669895 9.6922128,71.034233 16.005657,58.398572 h 15.613919 15.613917 l 6.314353,12.632047 6.314353,12.632047 -6.313445,12.635662 -6.313446,12.635662 H 31.621391 16.007472 Z M 54.391875,70.825895 48.059102,58.129443 l 6.332773,-12.692065 6.332776,-12.692065 15.480329,-0.0057 15.480329,-0.0057 6.345593,12.7 6.345588,12.7 -6.345588,12.7 -6.345593,12.7 -15.480329,-0.0058 -15.480329,-0.0058 z M 117.33346,59.072056 c -0.35719,-0.357188 -0.64943,-0.957911 -0.64943,-1.334942 0,-0.88215 1.10222,-1.984375 1.98437,-1.984375 0.88215,0 1.98438,1.102225 1.98438,1.984375 0,0.88215 -1.10223,1.984375 -1.98438,1.984375 -0.37703,0 -0.97775,-0.292246 -1.33494,-0.649433 z m -12.55568,-1.202651 v -1.322916 h 5.55625 5.55625 v 1.322916 1.322917 h -5.55625 -5.55625 z M 37.93745,53.267979 c -5.111395,-2.489685 -10.040072,-4.991185 -10.952612,-5.558894 -2.139182,-1.330819 -4.660126,-3.812463 -6.035137,-5.941046 -1.274853,-1.973535 -2.524564,-5.084424 -2.931243,-7.296706 -0.440197,-2.394617 -0.349572,-5.383049 0.232227,-7.657861 0.286454,-1.120027 1.026672,-3.014307 1.644928,-4.209511 0.827134,-1.599005 1.685588,-2.734831 3.249486,-4.299417 1.168961,-1.169477 2.813427,-2.511886 3.654369,-2.983131 3.239701,-1.815461 6.559611,-2.695757 10.166644,-2.695757 2.887811,0 5.927124,0.632508 8.501412,1.76922 2.357911,1.041167 4.854845,2.830917 6.689767,4.795088 2.680767,2.869589 4.354127,6.081448 5.170882,9.925027 0.527405,2.481917 0.34399,6.303614 -0.417359,8.696307 -0.309769,0.973511 -2.614472,5.868024 -5.121566,10.876698 L 47.2309,57.794674 Z M 51.067359,48.06853 c 2.255573,-4.650201 4.385352,-9.31822 4.732845,-10.373373 0.498923,-1.514968 0.634281,-2.502758 0.643586,-4.696585 0.01352,-3.187403 -0.442349,-5.22425 -1.809713,-8.085936 -1.879023,-3.932512 -4.94565,-7.000781 -8.990677,-8.995495 -1.309687,-0.645842 -3.155156,-1.381615 -4.101042,-1.63505 -2.349169,-0.629422 -7.192896,-0.626733 -9.525,0.0053 -2.816548,0.76331 -5.801579,2.336751 -7.610702,4.011679 -1.962855,1.817258 -3.797514,4.490789 -4.665558,6.798819 -0.856678,2.27781 -1.31189,5.478185 -1.08309,7.614685 0.587082,5.482082 3.83995,10.932657 8.278458,13.871559 0.97548,0.645901 5.821726,3.145269 10.769434,5.554149 4.947709,2.408881 9.055365,4.380997 9.128125,4.382479 0.07276,0.0016 1.977761,-3.802017 4.233334,-8.45222 z m 40.81198,-15.748916 c -0.618464,-0.370673 -1.124479,-0.769297 -1.124479,-0.88583 0,-0.204387 5.170704,-9.250361 5.443413,-9.52307 0.130112,-0.130111 2.494087,1.056704 2.494087,1.252136 0,0.111667 -5.585741,9.837016 -5.647695,9.833219 -0.02246,-0.0013 -0.546862,-0.305781 -1.165326,-0.676455 z m 5.874954,-10.81839 C 97.397106,21.144036 97.10486,20.543312 97.10486,20.16628 c 0,-0.88215 1.102225,-1.984375 1.984375,-1.984375 0.88215,0 1.984375,1.102225 1.984375,1.984375 0,0.882151 -1.102225,1.984375 -1.984375,1.984375 -0.377031,0 -0.977754,-0.292244 -1.334942,-0.649431 z"
         id="path6587" />
      <path
         style="fill:#a1a0a0;stroke-width:0.264583"
         d="m 76.530211,122.13393 c -4.64503,-0.77381 -9.588516,-3.75438 -12.40916,-7.48183 -0.673018,-0.88939 -1.623941,-2.45392 -2.113163,-3.47674 -1.5553,-3.25167 -1.670405,-4.35638 -1.675519,-16.080654 l -0.0046,-10.531988 11.972396,0.09396 c 11.529081,0.09048 12.045873,0.116113 13.956771,0.692269 5.207471,1.570112 9.826927,5.443895 12.19154,10.223587 0.575937,1.164167 1.221539,2.950105 1.434674,3.96875 0.49573,2.369306 0.49444,5.580646 -0.0032,7.929906 -0.770422,3.63704 -3.218757,7.64683 -6.134953,10.0476 -3.099398,2.55159 -6.289344,4.04507 -9.886608,4.62872 -1.989006,0.32272 -5.346801,0.31649 -7.328186,-0.0136 z m 9.144776,-1.32029 c 2.434111,-0.61465 5.061376,-1.98749 7.230316,-3.77811 2.853889,-2.35609 5.023448,-5.71609 5.928223,-9.18103 0.581562,-2.22717 0.5798,-6.43833 -0.0037,-8.689888 -0.547579,-2.113174 -1.719469,-4.485286 -3.12355,-6.322605 C 94.1786,90.842892 91.498908,88.69575 89.035055,87.496563 85.22629,85.642789 84.807473,85.591833 72.274616,85.457412 l -11.204187,-0.120174 0.122394,10.541603 c 0.103489,8.913419 0.192437,10.784229 0.575881,12.112449 0.587627,2.03548 1.778236,4.37714 3.151905,6.19907 2.118842,2.81027 6.084284,5.5272 9.512142,6.51726 3.416609,0.98682 7.597944,1.02625 11.242222,0.10602 z M 9.6931203,96.301942 3.3787685,83.669895 9.6922128,71.034233 16.005657,58.398572 h 15.613919 15.613917 l 6.314353,12.632047 6.314353,12.632047 -6.313445,12.635662 -6.313446,12.635662 H 31.621391 16.007472 Z m 44.8138217,-25.467953 -6.35108,-12.7 6.35108,-12.7 6.35108,-12.7 H 76.202776 91.54753 l 6.35108,12.7 6.35108,12.7 -6.35108,12.7 -6.35108,12.7 H 76.202776 60.858022 Z M 117.33346,59.072056 c -0.35719,-0.357188 -0.64943,-0.957911 -0.64943,-1.334942 0,-0.88215 1.10222,-1.984375 1.98437,-1.984375 0.88215,0 1.98438,1.102225 1.98438,1.984375 0,0.88215 -1.10223,1.984375 -1.98438,1.984375 -0.37703,0 -0.97775,-0.292246 -1.33494,-0.649433 z m -12.55568,-1.202651 v -1.322916 h 5.55625 5.55625 v 1.322916 1.322917 h -5.55625 -5.55625 z M 37.93745,53.267979 c -5.111395,-2.489685 -10.040072,-4.991185 -10.952612,-5.558894 -2.139182,-1.330819 -4.660126,-3.812463 -6.035137,-5.941046 -1.274853,-1.973535 -2.524564,-5.084424 -2.931243,-7.296706 -0.440197,-2.394617 -0.349572,-5.383049 0.232227,-7.657861 0.286454,-1.120027 1.026672,-3.014307 1.644928,-4.209511 0.827134,-1.599005 1.685588,-2.734831 3.249486,-4.299417 1.168961,-1.169477 2.813427,-2.511886 3.654369,-2.983131 3.239701,-1.815461 6.559611,-2.695757 10.166644,-2.695757 2.887811,0 5.927124,0.632508 8.501412,1.76922 2.357911,1.041167 4.854845,2.830917 6.689767,4.795088 2.680767,2.869589 4.354127,6.081448 5.170882,9.925027 0.527405,2.481917 0.34399,6.303614 -0.417359,8.696307 -0.309769,0.973511 -2.614472,5.868024 -5.121566,10.876698 L 47.2309,57.794674 Z M 51.067359,48.06853 c 2.255573,-4.650201 4.385352,-9.31822 4.732845,-10.373373 0.498923,-1.514968 0.634281,-2.502758 0.643586,-4.696585 0.01352,-3.187403 -0.442349,-5.22425 -1.809713,-8.085936 -1.879023,-3.932512 -4.94565,-7.000781 -8.990677,-8.995495 -1.309687,-0.645842 -3.155156,-1.381615 -4.101042,-1.63505 -2.349169,-0.629422 -7.192896,-0.626733 -9.525,0.0053 -2.816548,0.76331 -5.801579,2.336751 -7.610702,4.011679 -1.962855,1.817258 -3.797514,4.490789 -4.665558,6.798819 -0.856678,2.27781 -1.31189,5.478185 -1.08309,7.614685 0.587082,5.482082 3.83995,10.932657 8.278458,13.871559 0.97548,0.645901 5.821726,3.145269 10.769434,5.554149 4.947709,2.408881 9.055365,4.380997 9.128125,4.382479 0.07276,0.0016 1.977761,-3.802017 4.233334,-8.45222 z m 40.81198,-15.748916 c -0.618464,-0.370673 -1.124479,-0.769297 -1.124479,-0.88583 0,-0.204387 5.170704,-9.250361 5.443413,-9.52307 0.130112,-0.130111 2.494087,1.056704 2.494087,1.252136 0,0.111667 -5.585741,9.837016 -5.647695,9.833219 -0.02246,-0.0013 -0.546862,-0.305781 -1.165326,-0.676455 z m 5.874954,-10.81839 C 97.397106,21.144036 97.10486,20.543312 97.10486,20.16628 c 0,-0.88215 1.102225,-1.984375 1.984375,-1.984375 0.88215,0 1.984375,1.102225 1.984375,1.984375 0,0.882151 -1.102225,1.984375 -1.984375,1.984375 -0.377031,0 -0.977754,-0.292244 -1.334942,-0.649431 z"
         id="path6585" />
      <path
         style="fill:#fdbe00;stroke-width:0.264583"
         d="m 77.122613,122.18446 c -2.259475,-0.36292 -4.402338,-1.08174 -6.608379,-2.21675 -1.633098,-0.84024 -2.693942,-1.66588 -4.643506,-3.61398 -2.085827,-2.08427 -2.718073,-2.91746 -3.622527,-4.77391 -1.78616,-3.66619 -1.920425,-4.83183 -1.920425,-16.672534 V 84.56244 l 11.840104,0.09385 c 10.165287,0.08057 12.064662,0.157641 13.427605,0.544848 3.441948,0.977845 6.228109,2.570782 8.828651,5.047621 5.958294,5.674876 7.499974,14.028131 3.936878,21.331061 -0.904891,1.85467 -1.540277,2.69164 -3.624106,4.77391 -1.967101,1.96562 -3.008217,2.77336 -4.699937,3.64636 -1.195205,0.61677 -3.100205,1.36142 -4.233333,1.65476 -2.288813,0.59253 -6.637563,0.85783 -8.681025,0.52961 z m 6.471201,-0.8307 c 4.242837,-0.6884 7.574915,-2.44344 10.733074,-5.65324 3.215029,-3.26759 4.695008,-6.52685 5.060493,-11.14438 0.226131,-2.85691 -0.398267,-5.919346 -1.801657,-8.836454 C 96.730758,93.942538 96.071088,93.046127 94.360496,91.336991 91.174844,88.154045 87.717636,86.335469 83.574221,85.663144 82.623888,85.508939 77.370755,85.3892 71.506422,85.38807 l -10.384896,-0.002 v 9.800738 c 0,11.243692 0.149886,12.503932 1.915094,16.101942 0.83794,1.70797 1.584674,2.7249 3.225652,4.39283 3.90675,3.97092 8.240524,5.83299 13.776963,5.91948 1.018645,0.0159 2.618208,-0.0954 3.554579,-0.2473 z M 9.6931203,96.301942 3.3787685,83.669895 9.6922128,71.034233 16.005657,58.398572 h 15.613919 15.613917 l 6.314353,12.632047 6.314353,12.632047 -6.313445,12.635662 -6.313446,12.635662 H 31.621391 16.007472 Z m 44.8138217,-25.467953 -6.35108,-12.7 6.35108,-12.7 6.35108,-12.7 H 76.202776 91.54753 l 6.35108,12.7 6.35108,12.7 -6.35108,12.7 -6.35108,12.7 H 76.202776 60.858022 Z M 117.33346,59.072056 c -0.35719,-0.357188 -0.64943,-0.957911 -0.64943,-1.334942 0,-0.88215 1.10222,-1.984375 1.98437,-1.984375 0.88215,0 1.98438,1.102225 1.98438,1.984375 0,0.88215 -1.10223,1.984375 -1.98438,1.984375 -0.37703,0 -0.97775,-0.292246 -1.33494,-0.649433 z m -12.55568,-1.202651 v -1.322916 h 5.55625 5.55625 v 1.322916 1.322917 h -5.55625 -5.55625 z M 36.91215,52.73121 C 29.64349,49.140505 26.641931,47.516688 25.256102,46.425388 22.242336,44.052139 20.127035,40.957694 18.713565,36.854401 17.963277,34.676319 17.885652,34.147195 17.87619,31.146489 c -0.0096,-3.048616 0.0543,-3.488597 0.817164,-5.625363 0.455176,-1.27494 1.22827,-2.995372 1.717986,-3.823182 1.202255,-2.03228 4.237742,-5.075527 6.197709,-6.213553 3.220623,-1.870008 6.823772,-2.858735 10.417885,-2.858735 3.980077,0 8.455785,1.424306 11.923758,3.794503 5.042403,3.446246 8.24303,9.142563 8.647171,15.389809 0.254571,3.935204 -0.252032,5.410452 -5.587106,16.269854 -2.537981,5.16599 -4.770776,9.414021 -4.961766,9.440066 C 46.857999,57.54595 42.296421,55.39103 36.91215,52.73121 Z M 51.291926,47.716854 C 56.251158,37.489972 56.782705,35.907891 56.547427,32.074552 56.186549,26.194817 52.927141,20.427085 48.183022,17.273203 45.962046,15.7967 43.099688,14.556066 40.779401,14.064242 c -2.548443,-0.540184 -6.167756,-0.480759 -8.599575,0.141196 -5.599725,1.432168 -9.567683,4.637273 -11.976923,9.674318 -2.415161,5.049424 -2.137347,10.850662 0.785131,16.394858 0.507846,0.963427 1.776012,2.542958 3.225933,4.017976 l 2.389124,2.430473 9.917029,4.895175 c 5.454367,2.692344 10.045978,4.902615 10.203579,4.911712 0.157605,0.0091 2.213306,-3.956796 4.568227,-8.813096 z M 92.000619,32.354071 c -0.542343,-0.327319 -1.055712,-0.664756 -1.140817,-0.749863 -0.184889,-0.184887 5.228867,-9.706707 5.522711,-9.713457 0.112033,-0.0026 0.672404,0.291204 1.245272,0.652839 l 1.041575,0.657518 -2.416673,4.171128 c -1.329171,2.29412 -2.607773,4.487439 -2.841334,4.874041 l -0.424659,0.702916 z M 97.754293,21.501224 C 97.397106,21.144036 97.10486,20.543312 97.10486,20.16628 c 0,-0.88215 1.102225,-1.984375 1.984375,-1.984375 0.88215,0 1.984375,1.102225 1.984375,1.984375 0,0.882151 -1.102225,1.984375 -1.984375,1.984375 -0.377031,0 -0.977754,-0.292244 -1.334942,-0.649431 z"
         id="path6583" />
      <path
         style="fill:#d4a002;stroke-width:0.264583"
         d="m 77.122613,122.18446 c -2.259475,-0.36292 -4.402338,-1.08174 -6.608379,-2.21675 -1.633098,-0.84024 -2.693942,-1.66588 -4.643506,-3.61398 -2.085827,-2.08427 -2.718073,-2.91746 -3.622527,-4.77391 -1.78616,-3.66619 -1.920425,-4.83183 -1.920425,-16.672534 V 84.56244 l 11.840104,0.09385 c 10.165287,0.08057 12.064662,0.157641 13.427605,0.544848 3.441948,0.977845 6.228109,2.570782 8.828651,5.047621 5.958294,5.674876 7.499974,14.028131 3.936878,21.331061 -0.904891,1.85467 -1.540277,2.69164 -3.624106,4.77391 -1.967101,1.96562 -3.008217,2.77336 -4.699937,3.64636 -1.195205,0.61677 -3.100205,1.36142 -4.233333,1.65476 -2.288813,0.59253 -6.637563,0.85783 -8.681025,0.52961 z m 6.471201,-0.8307 c 4.242837,-0.6884 7.574915,-2.44344 10.733074,-5.65324 3.215029,-3.26759 4.695008,-6.52685 5.060493,-11.14438 0.226131,-2.85691 -0.398267,-5.919346 -1.801657,-8.836454 C 96.730758,93.942538 96.071088,93.046127 94.360496,91.336991 91.174844,88.154045 87.717636,86.335469 83.574221,85.663144 82.623888,85.508939 77.370755,85.3892 71.506422,85.38807 l -10.384896,-0.002 v 9.800738 c 0,11.243692 0.149886,12.503932 1.915094,16.101942 0.83794,1.70797 1.584674,2.7249 3.225652,4.39283 3.90675,3.97092 8.240524,5.83299 13.776963,5.91948 1.018645,0.0159 2.618208,-0.0954 3.554579,-0.2473 z M 9.6931203,96.301942 3.3787685,83.669895 9.6922128,71.034233 16.005657,58.398572 h 15.613919 15.613917 l 6.314353,12.632047 6.314353,12.632047 -6.313445,12.635662 -6.313446,12.635662 H 31.621391 16.007472 Z M 53.11788,96.27519 c 3.383359,-6.744057 6.151562,-12.426932 6.151562,-12.628608 0,-0.201676 -2.768203,-5.875686 -6.151562,-12.608909 l -6.151563,-12.242226 -15.278979,-0.06829 -15.278981,-0.06829 -6.274859,12.55304 -6.2748592,12.553039 6.2022202,12.45434 6.20222,12.454344 15.35162,-0.0683 15.351618,-0.0683 z M 24.079858,80.349829 V 69.20677 l 5.245558,0.08601 c 5.236938,0.08586 5.248116,0.08731 6.802771,0.883073 1.034476,0.529503 1.824418,1.177256 2.353209,1.929633 0.655037,0.932005 0.814171,1.454235 0.898637,2.949086 0.05769,1.020905 -0.03971,2.247844 -0.222364,2.801305 -0.415134,1.257869 -1.914589,2.92019 -3.247422,3.600151 l -1.037997,0.529547 0.550081,0.585537 c 0.302546,0.322045 1.806083,2.42661 3.341193,4.676814 l 2.791108,4.091276 -1.92125,0.07901 c -1.056688,0.04346 -2.195214,0.01024 -2.530057,-0.07379 -0.424244,-0.106486 -1.410735,-1.38518 -3.254039,-4.217902 -1.757307,-2.700565 -2.841776,-4.117787 -3.230767,-4.222075 -0.322045,-0.08634 -0.910008,-0.158608 -1.306586,-0.160595 l -0.721051,-0.0036 -0.0727,4.299479 -0.0727,4.299479 -2.182812,0.07685 -2.182813,0.07684 z m 9.250193,-1.176179 c 0.416489,-0.215373 1.005888,-0.707681 1.309778,-1.094015 0.403918,-0.513495 0.552529,-1.083109 0.552529,-2.117778 0,-1.17389 -0.124132,-1.551699 -0.727604,-2.214544 -0.534572,-0.587168 -1.105699,-0.869048 -2.15278,-1.062508 -0.783846,-0.144823 -1.944706,-0.263316 -2.579687,-0.263316 h -1.154512 v 3.571875 3.571875 h 1.997514 c 1.246095,0 2.282373,-0.147307 2.754762,-0.391589 z m 21.109814,-8.471953 -6.28219,-12.567708 6.28219,-12.567708 6.282193,-12.567709 h 15.480718 15.480718 l 6.282193,12.567709 6.282193,12.567708 -6.282193,12.567708 -6.282193,12.567708 H 76.202776 60.722058 Z m 29.700411,-4.630208 v -1.5875 h -5.55625 -5.55625 v -8.863542 -8.863541 h -2.116667 -2.116666 v 10.451041 10.451042 h 7.672916 7.672917 z m 33.193184,-6.999433 c -0.35719,-0.357188 -0.64943,-0.957911 -0.64943,-1.334942 0,-0.88215 1.10222,-1.984375 1.98437,-1.984375 0.88215,0 1.98438,1.102225 1.98438,1.984375 0,0.88215 -1.10223,1.984375 -1.98438,1.984375 -0.37703,0 -0.97775,-0.292246 -1.33494,-0.649433 z m -12.55568,-1.202651 v -1.322916 h 5.55625 5.55625 v 1.322916 1.322917 h -5.55625 -5.55625 z M 36.91215,52.73121 C 29.64349,49.140505 26.641931,47.516688 25.256102,46.425388 22.242336,44.052139 20.127035,40.957694 18.713565,36.854401 17.963277,34.676319 17.885652,34.147195 17.87619,31.146489 c -0.0096,-3.048616 0.0543,-3.488597 0.817164,-5.625363 0.455176,-1.27494 1.22827,-2.995372 1.717986,-3.823182 1.202255,-2.03228 4.237742,-5.075527 6.197709,-6.213553 3.220623,-1.870008 6.823772,-2.858735 10.417885,-2.858735 3.980077,0 8.455785,1.424306 11.923758,3.794503 5.042403,3.446246 8.24303,9.142563 8.647171,15.389809 0.254571,3.935204 -0.252032,5.410452 -5.587106,16.269854 -2.537981,5.16599 -4.770776,9.414021 -4.961766,9.440066 C 46.857999,57.54595 42.296421,55.39103 36.91215,52.73121 Z M 51.291926,47.716854 C 56.251158,37.489972 56.782705,35.907891 56.547427,32.074552 56.186549,26.194817 52.927141,20.427085 48.183022,17.273203 45.962046,15.7967 43.099688,14.556066 40.779401,14.064242 c -2.548443,-0.540184 -6.167756,-0.480759 -8.599575,0.141196 -5.599725,1.432168 -9.567683,4.637273 -11.976923,9.674318 -2.415161,5.049424 -2.137347,10.850662 0.785131,16.394858 0.507846,0.963427 1.776012,2.542958 3.225933,4.017976 l 2.389124,2.430473 9.917029,4.895175 c 5.454367,2.692344 10.045978,4.902615 10.203579,4.911712 0.157605,0.0091 2.213306,-3.956796 4.568227,-8.813096 z M 92.000619,32.354071 c -0.542343,-0.327319 -1.055712,-0.664756 -1.140817,-0.749863 -0.184889,-0.184887 5.228867,-9.706707 5.522711,-9.713457 0.112033,-0.0026 0.672404,0.291204 1.245272,0.652839 l 1.041575,0.657518 -2.416673,4.171128 c -1.329171,2.29412 -2.607773,4.487439 -2.841334,4.874041 l -0.424659,0.702916 z M 97.754293,21.501224 C 97.397106,21.144036 97.10486,20.543312 97.10486,20.16628 c 0,-0.88215 1.102225,-1.984375 1.984375,-1.984375 0.88215,0 1.984375,1.102225 1.984375,1.984375 0,0.882151 -1.102225,1.984375 -1.984375,1.984375 -0.377031,0 -0.977754,-0.292244 -1.334942,-0.649431 z"
         id="path6581" />
      <path
         style="fill:#b98b00;stroke-width:0.264583"
         d="m 77.122613,122.18446 c -2.259475,-0.36292 -4.402338,-1.08174 -6.608379,-2.21675 -1.633098,-0.84024 -2.693942,-1.66588 -4.643506,-3.61398 -2.085827,-2.08427 -2.718073,-2.91746 -3.622527,-4.77391 -1.78616,-3.66619 -1.920425,-4.83183 -1.920425,-16.672534 V 84.56244 l 11.840104,0.09385 c 10.165287,0.08057 12.064662,0.157641 13.427605,0.544848 3.441948,0.977845 6.228109,2.570782 8.828651,5.047621 5.958294,5.674876 7.499974,14.028131 3.936878,21.331061 -0.904891,1.85467 -1.540277,2.69164 -3.624106,4.77391 -1.967101,1.96562 -3.008217,2.77336 -4.699937,3.64636 -1.195205,0.61677 -3.100205,1.36142 -4.233333,1.65476 -2.288813,0.59253 -6.637563,0.85783 -8.681025,0.52961 z m 6.471201,-0.8307 c 4.242837,-0.6884 7.574915,-2.44344 10.733074,-5.65324 3.215029,-3.26759 4.695008,-6.52685 5.060493,-11.14438 0.226131,-2.85691 -0.398267,-5.919346 -1.801657,-8.836454 C 96.730758,93.942538 96.071088,93.046127 94.360496,91.336991 91.174844,88.154045 87.717636,86.335469 83.574221,85.663144 82.623888,85.508939 77.370755,85.3892 71.506422,85.38807 l -10.384896,-0.002 v 9.800738 c 0,11.243692 0.149886,12.503932 1.915094,16.101942 0.83794,1.70797 1.584674,2.7249 3.225652,4.39283 3.90675,3.97092 8.240524,5.83299 13.776963,5.91948 1.018645,0.0159 2.618208,-0.0954 3.554579,-0.2473 z M 9.6931203,96.301942 3.3787685,83.669895 9.6922128,71.034233 16.005657,58.398572 h 15.613919 15.613917 l 6.314353,12.632047 6.314353,12.632047 -6.313445,12.635662 -6.313446,12.635662 H 31.621391 16.007472 Z M 53.218038,96.167843 59.467155,83.66628 53.218032,71.164718 46.96891,58.663156 H 31.620478 16.272045 L 10.022928,71.164718 3.7738118,83.66628 10.022934,96.167843 16.272055,108.66941 H 31.620488 46.96892 Z M 24.256247,91.295099 c -0.09701,-0.09701 -0.176389,-5.097637 -0.176389,-11.1125 v -10.93611 h 4.582187 c 5.0141,0 6.659528,0.293714 8.439782,1.506524 1.303073,0.88773 2.323865,2.937465 2.323865,4.66629 0,0.718529 -0.138179,1.767617 -0.307065,2.331307 -0.396195,1.322382 -1.849636,3.012234 -3.17033,3.686003 l -1.039292,0.530206 0.898523,1.114314 c 1.018453,1.26305 5.152766,7.415477 5.378696,8.004241 0.122179,0.318392 -0.219186,0.386115 -1.946238,0.386115 -1.271921,0 -2.261709,-0.129879 -2.520434,-0.330729 -0.234315,-0.181901 -1.563677,-2.072982 -2.954137,-4.202399 -1.390462,-2.129417 -2.719525,-3.94512 -2.953475,-4.034895 -0.233947,-0.08978 -0.891873,-0.163227 -1.462055,-0.163227 h -1.036694 v 4.365625 4.365625 h -1.940277 c -1.067153,0 -2.019653,-0.07937 -2.116667,-0.17639 z m 9.207946,-12.140494 c 0.526748,-0.249959 1.150305,-0.82537 1.385675,-1.278688 0.555655,-1.070169 0.548947,-2.850968 -0.01397,-3.710091 -0.789313,-1.204643 -1.61,-1.537626 -4.146116,-1.682229 l -2.376591,-0.135506 v 3.564477 c 0,1.960462 0.0893,3.657108 0.198438,3.770326 0.329589,0.341897 3.927568,-0.0419 4.952564,-0.528289 z m 21.23557,-8.451183 -6.281635,-12.565986 6.282682,-12.56943 6.282683,-12.569434 h 15.217709 15.217709 l 6.282193,12.567709 6.282186,12.567708 -6.282186,12.567708 -6.282193,12.567708 H 76.200154 60.981394 Z m 29.440513,-4.764225 v -1.719791 h -5.55625 -5.55625 v -8.73125 -8.73125 h -2.116667 -2.116666 v 10.451041 10.451042 h 7.672916 7.672917 z m 33.193184,-6.867141 c -0.35719,-0.357188 -0.64943,-0.957911 -0.64943,-1.334942 0,-0.88215 1.10222,-1.984375 1.98437,-1.984375 0.88215,0 1.98438,1.102225 1.98438,1.984375 0,0.88215 -1.10223,1.984375 -1.98438,1.984375 -0.37703,0 -0.97775,-0.292246 -1.33494,-0.649433 z m -12.55568,-1.202651 v -1.322916 h 5.55625 5.55625 v 1.322916 1.322917 h -5.55625 -5.55625 z M 36.91215,52.73121 C 29.64349,49.140505 26.641931,47.516688 25.256102,46.425388 22.242336,44.052139 20.127035,40.957694 18.713565,36.854401 17.963277,34.676319 17.885652,34.147195 17.87619,31.146489 c -0.0096,-3.048616 0.0543,-3.488597 0.817164,-5.625363 0.455176,-1.27494 1.22827,-2.995372 1.717986,-3.823182 1.202255,-2.03228 4.237742,-5.075527 6.197709,-6.213553 3.220623,-1.870008 6.823772,-2.858735 10.417885,-2.858735 3.980077,0 8.455785,1.424306 11.923758,3.794503 5.042403,3.446246 8.24303,9.142563 8.647171,15.389809 0.254571,3.935204 -0.252032,5.410452 -5.587106,16.269854 -2.537981,5.16599 -4.770776,9.414021 -4.961766,9.440066 C 46.857999,57.54595 42.296421,55.39103 36.91215,52.73121 Z M 51.291926,47.716854 C 56.251158,37.489972 56.782705,35.907891 56.547427,32.074552 56.186549,26.194817 52.927141,20.427085 48.183022,17.273203 45.962046,15.7967 43.099688,14.556066 40.779401,14.064242 c -2.548443,-0.540184 -6.167756,-0.480759 -8.599575,0.141196 -5.599725,1.432168 -9.567683,4.637273 -11.976923,9.674318 -2.415161,5.049424 -2.137347,10.850662 0.785131,16.394858 0.507846,0.963427 1.776012,2.542958 3.225933,4.017976 l 2.389124,2.430473 9.917029,4.895175 c 5.454367,2.692344 10.045978,4.902615 10.203579,4.911712 0.157605,0.0091 2.213306,-3.956796 4.568227,-8.813096 z M 92.000619,32.354071 c -0.542343,-0.327319 -1.055712,-0.664756 -1.140817,-0.749863 -0.184889,-0.184887 5.228867,-9.706707 5.522711,-9.713457 0.112033,-0.0026 0.672404,0.291204 1.245272,0.652839 l 1.041575,0.657518 -2.416673,4.171128 c -1.329171,2.29412 -2.607773,4.487439 -2.841334,4.874041 l -0.424659,0.702916 z M 97.754293,21.501224 C 97.397106,21.144036 97.10486,20.543312 97.10486,20.16628 c 0,-0.88215 1.102225,-1.984375 1.984375,-1.984375 0.88215,0 1.984375,1.102225 1.984375,1.984375 0,0.882151 -1.102225,1.984375 -1.984375,1.984375 -0.377031,0 -0.977754,-0.292244 -1.334942,-0.649431 z"
         id="path6579" />
      <path
         style="fill:#5d5d5d;stroke-width:0.264583"
         d="m 77.122613,122.18446 c -2.259475,-0.36292 -4.402338,-1.08174 -6.608379,-2.21675 -1.633098,-0.84024 -2.693942,-1.66588 -4.643506,-3.61398 -2.085827,-2.08427 -2.718073,-2.91746 -3.622527,-4.77391 -1.78616,-3.66619 -1.920425,-4.83183 -1.920425,-16.672534 V 84.56244 l 11.840104,0.09385 c 10.165287,0.08057 12.064662,0.157641 13.427605,0.544848 3.441948,0.977845 6.228109,2.570782 8.828651,5.047621 5.958294,5.674876 7.499974,14.028131 3.936878,21.331061 -0.904891,1.85467 -1.540277,2.69164 -3.624106,4.77391 -1.967101,1.96562 -3.008217,2.77336 -4.699937,3.64636 -1.195205,0.61677 -3.100205,1.36142 -4.233333,1.65476 -2.288813,0.59253 -6.637563,0.85783 -8.681025,0.52961 z m 6.471201,-0.8307 c 4.242837,-0.6884 7.574915,-2.44344 10.733074,-5.65324 3.215029,-3.26759 4.695008,-6.52685 5.060493,-11.14438 0.226131,-2.85691 -0.398267,-5.919346 -1.801657,-8.836454 C 96.730758,93.942538 96.071088,93.046127 94.360496,91.336991 91.174844,88.154045 87.717636,86.335469 83.574221,85.663144 82.623888,85.508939 77.370755,85.3892 71.506422,85.38807 l -10.384896,-0.002 v 9.800738 c 0,11.243692 0.149886,12.503932 1.915094,16.101942 0.83794,1.70797 1.584674,2.7249 3.225652,4.39283 3.90675,3.97092 8.240524,5.83299 13.776963,5.91948 1.018645,0.0159 2.618208,-0.0954 3.554579,-0.2473 z M 9.6931203,96.301942 3.3787685,83.669895 9.6922128,71.034233 16.005657,58.398572 h 15.613919 15.613917 l 6.314353,12.632047 6.314353,12.632047 -6.313445,12.635662 -6.313446,12.635662 H 31.621391 16.007472 Z M 53.218038,96.167843 59.467155,83.66628 53.218032,71.164718 46.96891,58.663156 H 31.620478 16.272045 L 10.022928,71.164718 3.7738118,83.66628 10.022934,96.167843 16.272055,108.66941 H 31.620488 46.96892 Z M 24.344441,80.330459 V 69.189431 l 4.960938,0.108056 c 4.477001,0.09752 5.096224,0.16791 6.347788,0.72162 1.705703,0.754623 3.114239,2.264563 3.522837,3.77645 0.169373,0.626711 0.245481,1.749359 0.16913,2.494775 -0.242035,2.362954 -1.568326,4.259644 -3.610832,5.163746 -0.847522,0.37515 -0.988542,0.613273 -0.530749,0.896205 0.285086,0.176191 6.074222,8.737711 6.074222,8.983128 0,0.284755 -3.597981,0.117046 -4.216807,-0.196551 -0.354714,-0.179756 -1.842995,-2.112767 -3.307292,-4.295579 l -2.662359,-3.96875 -1.389063,-0.07997 -1.389063,-0.07997 v 4.379452 4.379452 h -1.984375 -1.984375 z m 8.313526,-0.791639 c 1.470335,-0.408231 2.450738,-1.484042 2.667067,-2.926617 0.237717,-1.585217 -0.337061,-2.948511 -1.500894,-3.559924 -0.568889,-0.298862 -1.70047,-0.503909 -3.195844,-0.579104 l -2.315105,-0.116414 v 3.736531 3.73653 l 1.653646,-0.0016 c 0.909506,-7.94e-4 2.120514,-0.131099 2.69113,-0.289526 z m 22.046481,-8.837123 -6.28219,-12.567708 6.28219,-12.567708 6.282193,-12.567709 h 15.216135 15.216135 l 6.282193,12.567709 6.282186,12.567708 -6.282186,12.567708 -6.282193,12.567708 H 76.202776 60.986641 Z m 29.435828,-4.7625 v -1.719791 h -5.55625 -5.55625 v -8.73125 -8.73125 h -2.116667 -2.116666 v 10.451041 10.451042 h 7.672916 7.672917 z m 33.193184,-6.867141 c -0.35719,-0.357188 -0.64943,-0.957911 -0.64943,-1.334942 0,-0.88215 1.10222,-1.984375 1.98437,-1.984375 0.88215,0 1.98438,1.102225 1.98438,1.984375 0,0.88215 -1.10223,1.984375 -1.98438,1.984375 -0.37703,0 -0.97775,-0.292246 -1.33494,-0.649433 z m -12.55568,-1.202651 v -1.322916 h 5.55625 5.55625 v 1.322916 1.322917 h -5.55625 -5.55625 z M 36.91215,52.73121 C 29.64349,49.140505 26.641931,47.516688 25.256102,46.425388 22.242336,44.052139 20.127035,40.957694 18.713565,36.854401 17.963277,34.676319 17.885652,34.147195 17.87619,31.146489 c -0.0096,-3.048616 0.0543,-3.488597 0.817164,-5.625363 0.455176,-1.27494 1.22827,-2.995372 1.717986,-3.823182 1.202255,-2.03228 4.237742,-5.075527 6.197709,-6.213553 3.220623,-1.870008 6.823772,-2.858735 10.417885,-2.858735 3.980077,0 8.455785,1.424306 11.923758,3.794503 5.042403,3.446246 8.24303,9.142563 8.647171,15.389809 0.254571,3.935204 -0.252032,5.410452 -5.587106,16.269854 -2.537981,5.16599 -4.770776,9.414021 -4.961766,9.440066 C 46.857999,57.54595 42.296421,55.39103 36.91215,52.73121 Z M 51.291926,47.716854 C 56.251158,37.489972 56.782705,35.907891 56.547427,32.074552 56.186549,26.194817 52.927141,20.427085 48.183022,17.273203 45.962046,15.7967 43.099688,14.556066 40.779401,14.064242 c -2.548443,-0.540184 -6.167756,-0.480759 -8.599575,0.141196 -5.599725,1.432168 -9.567683,4.637273 -11.976923,9.674318 -2.415161,5.049424 -2.137347,10.850662 0.785131,16.394858 0.507846,0.963427 1.776012,2.542958 3.225933,4.017976 l 2.389124,2.430473 9.917029,4.895175 c 5.454367,2.692344 10.045978,4.902615 10.203579,4.911712 0.157605,0.0091 2.213306,-3.956796 4.568227,-8.813096 z M 92.000619,32.354071 c -0.542343,-0.327319 -1.055712,-0.664756 -1.140817,-0.749863 -0.184889,-0.184887 5.228867,-9.706707 5.522711,-9.713457 0.112033,-0.0026 0.672404,0.291204 1.245272,0.652839 l 1.041575,0.657518 -2.416673,4.171128 c -1.329171,2.29412 -2.607773,4.487439 -2.841334,4.874041 l -0.424659,0.702916 z M 97.754293,21.501224 C 97.397106,21.144036 97.10486,20.543312 97.10486,20.16628 c 0,-0.88215 1.102225,-1.984375 1.984375,-1.984375 0.88215,0 1.984375,1.102225 1.984375,1.984375 0,0.882151 -1.102225,1.984375 -1.984375,1.984375 -0.377031,0 -0.977754,-0.292244 -1.334942,-0.649431 z"
         id="path6577" />
      <path
         style="fill:#32548f;stroke-width:0.264583"
         d="m 78.319443,122.24782 c -1.837862,-0.18901 -4.923674,-0.95655 -6.309731,-1.56944 -3.891584,-1.72079 -7.655213,-5.19002 -9.512752,-8.76866 -1.959775,-3.7756 -1.97494,-3.8933 -2.099194,-16.292626 l -0.110913,-11.067933 11.728275,0.107555 c 11.137991,0.10214 11.833141,0.137137 13.811878,0.695347 1.145984,0.323286 2.693797,0.894135 3.439583,1.268558 3.950481,1.983327 7.229317,5.237284 9.020353,8.95191 0.631475,1.309687 1.301387,3.036093 1.488694,3.836458 0.492504,2.104491 0.420544,6.649241 -0.138237,8.731251 -0.253863,0.94588 -0.954556,2.67229 -1.557097,3.83646 -0.787567,1.52165 -1.692256,2.71883 -3.218299,4.25877 -1.227569,1.23875 -2.92858,2.61644 -4.033576,3.26689 -2.317866,1.3644 -5.09719,2.27976 -8.044008,2.64925 -2.174962,0.27272 -2.649223,0.28294 -4.464976,0.0962 z m 6.295009,-1.02664 c 1.168929,-0.23662 3.108598,-0.92869 4.544489,-1.62148 2.135206,-1.0302 2.861204,-1.56505 4.916569,-3.62209 1.950051,-1.95164 2.623347,-2.84372 3.518914,-4.66237 0.609108,-1.23693 1.281848,-3.0824 1.494983,-4.10104 0.820124,-3.91969 0.269415,-8.172281 -1.524725,-11.773961 -0.612005,-1.228582 -1.57462,-2.438358 -3.370239,-4.235585 -2.708346,-2.710773 -4.639445,-3.920847 -8.069792,-5.056733 -1.803635,-0.597236 -2.154888,-0.615619 -13.427604,-0.702789 l -11.575521,-0.08951 v 9.948254 c 0,12.481284 0.191727,13.688044 2.800387,17.626104 0.636503,0.96087 2.047748,2.5929 3.136101,3.62673 1.485133,1.41073 2.592184,2.17597 4.437314,3.06724 1.352169,0.65316 3.291927,1.36291 4.310573,1.57723 2.467473,0.51915 6.299687,0.52784 8.808551,0.02 z M 9.6931203,96.301942 3.3787685,83.669895 9.6922128,71.034233 16.005657,58.398572 l 15.612622,0.0013 15.612621,0.0013 6.30005,12.627152 6.300052,12.627155 -6.300052,12.6374 -6.30005,12.637401 -15.611713,0.002 -15.611715,0.002 z M 53.218038,96.167843 59.467155,83.66628 53.218032,71.164718 46.96891,58.663156 H 31.620478 16.272045 L 10.022928,71.164718 3.7738118,83.66628 10.022934,96.167843 16.272055,108.66941 H 31.620488 46.96892 Z M 24.344441,80.330459 V 69.189431 l 4.960938,0.108056 c 4.477001,0.09752 5.096224,0.16791 6.347788,0.72162 1.705703,0.754623 3.114239,2.264563 3.522837,3.77645 0.169373,0.626711 0.245481,1.749359 0.16913,2.494775 -0.242035,2.362954 -1.568326,4.259644 -3.610832,5.163746 -0.847522,0.37515 -0.988542,0.613273 -0.530749,0.896205 0.285086,0.176191 6.074222,8.737711 6.074222,8.983128 0,0.284755 -3.597981,0.117046 -4.216807,-0.196551 -0.354714,-0.179756 -1.842995,-2.112767 -3.307292,-4.295579 l -2.662359,-3.96875 -1.389063,-0.07997 -1.389063,-0.07997 v 4.379452 4.379452 h -1.984375 -1.984375 z m 8.313526,-0.791639 c 1.470335,-0.408231 2.450738,-1.484042 2.667067,-2.926617 0.237717,-1.585217 -0.337061,-2.948511 -1.500894,-3.559924 -0.568889,-0.298862 -1.70047,-0.503909 -3.195844,-0.579104 l -2.315105,-0.116414 v 3.736531 3.73653 l 1.653646,-0.0016 c 0.909506,-7.94e-4 2.120514,-0.131099 2.69113,-0.289526 z m 22.046481,-8.837123 -6.28219,-12.567708 6.28219,-12.567708 6.282193,-12.567709 h 15.216135 15.216135 l 6.282193,12.567709 6.282186,12.567708 -6.282186,12.567708 -6.282193,12.567708 H 76.202776 60.986641 Z m 29.435828,-4.7625 v -1.719791 h -5.55625 -5.55625 v -8.73125 -8.73125 h -2.116667 -2.116666 v 10.451041 10.451042 h 7.672916 7.672917 z m 33.193184,-6.867141 c -0.35719,-0.357188 -0.64943,-0.957911 -0.64943,-1.334942 0,-0.88215 1.10222,-1.984375 1.98437,-1.984375 0.88215,0 1.98438,1.102225 1.98438,1.984375 0,0.88215 -1.10223,1.984375 -1.98438,1.984375 -0.37703,0 -0.97775,-0.292246 -1.33494,-0.649433 z m -12.55568,-1.202651 v -1.322916 h 5.55625 5.55625 v 1.322916 1.322917 h -5.55625 -5.55625 z M 37.030805,52.75502 c -5.319009,-2.644119 -10.274078,-5.252524 -11.011264,-5.796452 -0.737185,-0.54393 -2.126793,-1.822651 -3.088019,-2.841601 -1.264577,-1.340517 -2.074414,-2.529898 -2.929668,-4.302702 -1.636262,-3.391712 -2.102031,-5.31232 -2.102031,-8.667776 0,-3.21886 0.480564,-5.310482 1.845897,-8.034138 2.302693,-4.593562 5.891502,-7.717797 10.65043,-9.271723 5.218798,-1.704087 9.164879,-1.603213 14.253084,0.364352 6.298324,2.435508 10.828356,7.699881 12.529209,14.560259 0.480912,1.939759 0.416898,6.0701 -0.127122,8.202083 -0.49635,1.945169 -9.637747,20.650137 -10.075516,20.616344 -0.150739,-0.01164 -4.625988,-2.184527 -9.945,-4.828646 z m 14.170012,-4.717394 c 2.242966,-4.607115 4.34739,-9.13149 4.6765,-10.054166 0.505971,-1.418506 0.597728,-2.208811 0.594135,-5.117179 -0.0037,-3.02014 -0.09068,-3.697703 -0.713025,-5.556251 C 55.3686,26.145864 54.600118,24.419458 54.050692,23.473572 53.501264,22.527687 52.03294,20.725332 50.787744,19.468339 48.814072,17.475965 48.169438,17.0123 45.760661,15.852515 44.24096,15.120804 42.164129,14.3177 41.145483,14.067839 c -2.382951,-0.584506 -6.556314,-0.582517 -8.863541,0.0042 -0.945886,0.240544 -2.834286,0.975066 -4.196443,1.63227 -1.91766,0.92522 -2.878485,1.596753 -4.257016,2.975284 -2.012193,2.012192 -3.670105,4.639379 -4.527984,7.175205 -0.727186,2.149508 -0.976845,6.204776 -0.525076,8.528931 0.957021,4.923465 4.262807,9.904143 8.278627,12.47303 1.937909,1.239668 19.28598,9.699876 19.725876,9.619806 0.188529,-0.03431 2.177928,-3.83185 4.420891,-8.438963 z M 92.000619,32.354071 c -0.542343,-0.327319 -1.055712,-0.664756 -1.140817,-0.749863 -0.184889,-0.184887 5.228867,-9.706707 5.522711,-9.713457 0.112033,-0.0026 0.672404,0.291204 1.245272,0.652839 l 1.041575,0.657518 -2.416673,4.171128 c -1.329171,2.29412 -2.607773,4.487439 -2.841334,4.874041 l -0.424659,0.702916 z M 97.754293,21.501224 C 97.397106,21.144036 97.10486,20.543312 97.10486,20.16628 c 0,-0.88215 1.102225,-1.984375 1.984375,-1.984375 0.88215,0 1.984375,1.102225 1.984375,1.984375 0,0.882151 -1.102225,1.984375 -1.984375,1.984375 -0.377031,0 -0.977754,-0.292244 -1.334942,-0.649431 z"
         id="path6575" />
      <path
         style="fill:#eb1709;stroke-width:0.264583"
         d="m 78.319443,122.24782 c -1.837862,-0.18901 -4.923674,-0.95655 -6.309731,-1.56944 -3.891584,-1.72079 -7.655213,-5.19002 -9.512752,-8.76866 -1.959775,-3.7756 -1.97494,-3.8933 -2.099194,-16.292626 l -0.110913,-11.067933 11.728275,0.107555 c 11.137991,0.10214 11.833141,0.137137 13.811878,0.695347 1.145984,0.323286 2.693797,0.894135 3.439583,1.268558 3.950481,1.983327 7.229317,5.237284 9.020353,8.95191 0.631475,1.309687 1.301387,3.036093 1.488694,3.836458 0.492504,2.104491 0.420544,6.649241 -0.138237,8.731251 -0.253863,0.94588 -0.954556,2.67229 -1.557097,3.83646 -0.787567,1.52165 -1.692256,2.71883 -3.218299,4.25877 -1.227569,1.23875 -2.92858,2.61644 -4.033576,3.26689 -2.317866,1.3644 -5.09719,2.27976 -8.044008,2.64925 -2.174962,0.27272 -2.649223,0.28294 -4.464976,0.0962 z m 6.295009,-1.02664 c 1.168929,-0.23662 3.108598,-0.92869 4.544489,-1.62148 2.135206,-1.0302 2.861204,-1.56505 4.916569,-3.62209 1.950051,-1.95164 2.623347,-2.84372 3.518914,-4.66237 0.609108,-1.23693 1.281848,-3.0824 1.494983,-4.10104 0.820124,-3.91969 0.269415,-8.172281 -1.524725,-11.773961 -0.612005,-1.228582 -1.57462,-2.438358 -3.370239,-4.235585 -2.708346,-2.710773 -4.639445,-3.920847 -8.069792,-5.056733 -1.803635,-0.597236 -2.154888,-0.615619 -13.427604,-0.702789 l -11.575521,-0.08951 v 9.948254 c 0,12.481284 0.191727,13.688044 2.800387,17.626104 0.636503,0.96087 2.047748,2.5929 3.136101,3.62673 1.485133,1.41073 2.592184,2.17597 4.437314,3.06724 1.352169,0.65316 3.291927,1.36291 4.310573,1.57723 2.467473,0.51915 6.299687,0.52784 8.808551,0.02 z M 9.6931203,96.301942 3.3787685,83.669895 9.6922128,71.034233 16.005657,58.398572 l 15.612622,0.0013 15.612621,0.0013 6.30005,12.627152 6.300052,12.627155 -6.300052,12.6374 -6.30005,12.637401 -15.611713,0.002 -15.611715,0.002 z M 53.218038,96.167843 59.467155,83.66628 53.218032,71.164718 46.96891,58.663156 H 31.620478 16.272045 L 10.022928,71.164718 3.7738118,83.66628 10.022934,96.167843 16.272055,108.66941 H 31.620488 46.96892 Z M 24.344441,80.330459 V 69.189431 l 4.960938,0.108056 c 4.477001,0.09752 5.096224,0.16791 6.347788,0.72162 1.705703,0.754623 3.114239,2.264563 3.522837,3.77645 0.169373,0.626711 0.245481,1.749359 0.16913,2.494775 -0.242035,2.362954 -1.568326,4.259644 -3.610832,5.163746 -0.847522,0.37515 -0.988542,0.613273 -0.530749,0.896205 0.285086,0.176191 6.074222,8.737711 6.074222,8.983128 0,0.284755 -3.597981,0.117046 -4.216807,-0.196551 -0.354714,-0.179756 -1.842995,-2.112767 -3.307292,-4.295579 l -2.662359,-3.96875 -1.389063,-0.07997 -1.389063,-0.07997 v 4.379452 4.379452 h -1.984375 -1.984375 z m 8.313526,-0.791639 c 1.470335,-0.408231 2.450738,-1.484042 2.667067,-2.926617 0.237717,-1.585217 -0.337061,-2.948511 -1.500894,-3.559924 -0.568889,-0.298862 -1.70047,-0.503909 -3.195844,-0.579104 l -2.315105,-0.116414 v 3.736531 3.73653 l 1.653646,-0.0016 c 0.909506,-7.94e-4 2.120514,-0.131099 2.69113,-0.289526 z m 22.046481,-8.837123 -6.28219,-12.567708 6.28219,-12.567708 6.282193,-12.567709 h 15.216135 15.216135 l 6.282193,12.567709 6.282186,12.567708 -6.282186,12.567708 -6.282193,12.567708 H 76.202776 60.986641 Z m 29.435828,-4.7625 v -1.719791 h -5.55625 -5.55625 v -8.73125 -8.73125 h -2.116667 -2.116666 v 10.451041 10.451042 h 7.672916 7.672917 z m 33.193184,-6.867141 c -0.35719,-0.357188 -0.64943,-0.957911 -0.64943,-1.334942 0,-0.88215 1.10222,-1.984375 1.98437,-1.984375 0.88215,0 1.98438,1.102225 1.98438,1.984375 0,0.88215 -1.10223,1.984375 -1.98438,1.984375 -0.37703,0 -0.97775,-0.292246 -1.33494,-0.649433 z m -12.2911,-1.202651 v -1.058333 h 5.29167 5.29166 v 1.058333 1.058334 h -5.29166 -5.29167 z M 37.030805,52.75502 c -5.319009,-2.644119 -10.274078,-5.252524 -11.011264,-5.796452 -0.737185,-0.54393 -2.126793,-1.822651 -3.088019,-2.841601 -1.264577,-1.340517 -2.074414,-2.529898 -2.929668,-4.302702 -1.636262,-3.391712 -2.102031,-5.31232 -2.102031,-8.667776 0,-3.21886 0.480564,-5.310482 1.845897,-8.034138 2.302693,-4.593562 5.891502,-7.717797 10.65043,-9.271723 5.218798,-1.704087 9.164879,-1.603213 14.253084,0.364352 6.298324,2.435508 10.828356,7.699881 12.529209,14.560259 0.480912,1.939759 0.416898,6.0701 -0.127122,8.202083 -0.49635,1.945169 -9.637747,20.650137 -10.075516,20.616344 -0.150739,-0.01164 -4.625988,-2.184527 -9.945,-4.828646 z m 14.170012,-4.717394 c 2.242966,-4.607115 4.34739,-9.13149 4.6765,-10.054166 0.505971,-1.418506 0.597728,-2.208811 0.594135,-5.117179 -0.0037,-3.02014 -0.09068,-3.697703 -0.713025,-5.556251 C 55.3686,26.145864 54.600118,24.419458 54.050692,23.473572 53.501264,22.527687 52.03294,20.725332 50.787744,19.468339 48.814072,17.475965 48.169438,17.0123 45.760661,15.852515 44.24096,15.120804 42.164129,14.3177 41.145483,14.067839 c -2.382951,-0.584506 -6.556314,-0.582517 -8.863541,0.0042 -0.945886,0.240544 -2.834286,0.975066 -4.196443,1.63227 -1.91766,0.92522 -2.878485,1.596753 -4.257016,2.975284 -2.012193,2.012192 -3.670105,4.639379 -4.527984,7.175205 -0.727186,2.149508 -0.976845,6.204776 -0.525076,8.528931 0.957021,4.923465 4.262807,9.904143 8.278627,12.47303 1.937909,1.239668 19.28598,9.699876 19.725876,9.619806 0.188529,-0.03431 2.177928,-3.83185 4.420891,-8.438963 z m 40.704221,-16.111556 -0.834197,-0.53442 2.653546,-4.610014 2.653546,-4.610014 0.743561,0.38451 c 0.408959,0.211481 0.815028,0.500148 0.902378,0.641483 0.08735,0.141335 -1.006428,2.282901 -2.430619,4.759036 -1.424189,2.476134 -2.648966,4.502462 -2.721726,4.502952 -0.07276,5.29e-4 -0.50768,-0.239602 -0.966489,-0.533533 z M 97.754293,21.501224 C 97.397106,21.144036 97.10486,20.543312 97.10486,20.16628 c 0,-0.88215 1.102225,-1.984375 1.984375,-1.984375 0.88215,0 1.984375,1.102225 1.984375,1.984375 0,0.882151 -1.102225,1.984375 -1.984375,1.984375 -0.377031,0 -0.977754,-0.292244 -1.334942,-0.649431 z"
         id="path6573" />
      <path
         style="fill:#654b10;stroke-width:0.264583"
         d="m 78.319443,122.24782 c -1.837862,-0.18901 -4.923674,-0.95655 -6.309731,-1.56944 -3.891584,-1.72079 -7.655213,-5.19002 -9.512752,-8.76866 -1.959775,-3.7756 -1.97494,-3.8933 -2.099194,-16.292626 l -0.110913,-11.067933 11.728275,0.107555 c 11.137991,0.10214 11.833141,0.137137 13.811878,0.695347 1.145984,0.323286 2.693797,0.894135 3.439583,1.268558 3.950481,1.983327 7.229317,5.237284 9.020353,8.95191 0.631475,1.309687 1.301387,3.036093 1.488694,3.836458 0.492504,2.104491 0.420544,6.649241 -0.138237,8.731251 -0.253863,0.94588 -0.954556,2.67229 -1.557097,3.83646 -0.787567,1.52165 -1.692256,2.71883 -3.218299,4.25877 -1.227569,1.23875 -2.92858,2.61644 -4.033576,3.26689 -2.317866,1.3644 -5.09719,2.27976 -8.044008,2.64925 -2.174962,0.27272 -2.649223,0.28294 -4.464976,0.0962 z m 6.295009,-1.02664 c 1.168929,-0.23662 3.108598,-0.92869 4.544489,-1.62148 2.135206,-1.0302 2.861204,-1.56505 4.916569,-3.62209 1.950051,-1.95164 2.623347,-2.84372 3.518914,-4.66237 0.609108,-1.23693 1.281848,-3.0824 1.494983,-4.10104 0.820124,-3.91969 0.269415,-8.172281 -1.524725,-11.773961 -0.612005,-1.228582 -1.57462,-2.438358 -3.370239,-4.235585 -2.708346,-2.710773 -4.639445,-3.920847 -8.069792,-5.056733 -1.803635,-0.597236 -2.154888,-0.615619 -13.427604,-0.702789 l -11.575521,-0.08951 v 9.948254 c 0,12.481284 0.191727,13.688044 2.800387,17.626104 0.636503,0.96087 2.047748,2.5929 3.136101,3.62673 1.485133,1.41073 2.592184,2.17597 4.437314,3.06724 1.352169,0.65316 3.291927,1.36291 4.310573,1.57723 2.467473,0.51915 6.299687,0.52784 8.808551,0.02 z M 9.6931203,96.301942 3.3787685,83.669895 9.6922128,71.034233 16.005657,58.398572 l 15.612622,0.0013 15.612621,0.0013 6.30005,12.627152 6.300052,12.627155 -6.300052,12.6374 -6.30005,12.637401 -15.611713,0.002 -15.611715,0.002 z M 53.218038,96.167843 59.467155,83.66628 53.218032,71.164718 46.96891,58.663156 H 31.620478 16.272045 L 10.022928,71.164718 3.7738118,83.66628 10.022934,96.167843 16.272055,108.66941 H 31.620488 46.96892 Z M 24.344441,80.330459 V 69.189431 l 4.960938,0.108056 c 4.477001,0.09752 5.096224,0.16791 6.347788,0.72162 1.705703,0.754623 3.114239,2.264563 3.522837,3.77645 0.169373,0.626711 0.245481,1.749359 0.16913,2.494775 -0.242035,2.362954 -1.568326,4.259644 -3.610832,5.163746 -0.847522,0.37515 -0.988542,0.613273 -0.530749,0.896205 0.285086,0.176191 6.074222,8.737711 6.074222,8.983128 0,0.284755 -3.597981,0.117046 -4.216807,-0.196551 -0.354714,-0.179756 -1.842995,-2.112767 -3.307292,-4.295579 l -2.662359,-3.96875 -1.389063,-0.07997 -1.389063,-0.07997 v 4.379452 4.379452 h -1.984375 -1.984375 z m 8.313526,-0.791639 c 1.470335,-0.408231 2.450738,-1.484042 2.667067,-2.926617 0.237717,-1.585217 -0.337061,-2.948511 -1.500894,-3.559924 -0.568889,-0.298862 -1.70047,-0.503909 -3.195844,-0.579104 l -2.315105,-0.116414 v 3.736531 3.73653 l 1.653646,-0.0016 c 0.909506,-7.94e-4 2.120514,-0.131099 2.69113,-0.289526 z m 22.046481,-8.837123 -6.28219,-12.567708 6.28219,-12.567708 6.282193,-12.567709 h 15.216135 15.216135 l 6.282193,12.567709 6.282186,12.567708 -6.282186,12.567708 -6.282193,12.567708 H 76.202776 60.986641 Z m 29.435828,-4.7625 v -1.719791 h -5.55625 -5.55625 v -8.73125 -8.73125 h -2.116667 -2.116666 v 10.451041 10.451042 h 7.672916 7.672917 z m 20.902084,-8.069792 v -1.058333 h 5.29167 5.29166 v 1.058333 1.058334 h -5.29166 -5.29167 z M 37.030805,52.75502 c -5.319009,-2.644119 -10.274078,-5.252524 -11.011264,-5.796452 -0.737185,-0.54393 -2.126793,-1.822651 -3.088019,-2.841601 -1.264577,-1.340517 -2.074414,-2.529898 -2.929668,-4.302702 -1.636262,-3.391712 -2.102031,-5.31232 -2.102031,-8.667776 0,-3.21886 0.480564,-5.310482 1.845897,-8.034138 2.302693,-4.593562 5.891502,-7.717797 10.65043,-9.271723 5.218798,-1.704087 9.164879,-1.603213 14.253084,0.364352 6.298324,2.435508 10.828356,7.699881 12.529209,14.560259 0.480912,1.939759 0.416898,6.0701 -0.127122,8.202083 -0.49635,1.945169 -9.637747,20.650137 -10.075516,20.616344 -0.150739,-0.01164 -4.625988,-2.184527 -9.945,-4.828646 z m 14.170012,-4.717394 c 2.242966,-4.607115 4.34739,-9.13149 4.6765,-10.054166 0.505971,-1.418506 0.597728,-2.208811 0.594135,-5.117179 -0.0037,-3.02014 -0.09068,-3.697703 -0.713025,-5.556251 C 55.3686,26.145864 54.600118,24.419458 54.050692,23.473572 53.501264,22.527687 52.03294,20.725332 50.787744,19.468339 48.814072,17.475965 48.169438,17.0123 45.760661,15.852515 44.24096,15.120804 42.164129,14.3177 41.145483,14.067839 c -2.382951,-0.584506 -6.556314,-0.582517 -8.863541,0.0042 -0.945886,0.240544 -2.834286,0.975066 -4.196443,1.63227 -1.91766,0.92522 -2.878485,1.596753 -4.257016,2.975284 -2.012193,2.012192 -3.670105,4.639379 -4.527984,7.175205 -0.727186,2.149508 -0.976845,6.204776 -0.525076,8.528931 0.957021,4.923465 4.262807,9.904143 8.278627,12.47303 1.937909,1.239668 19.28598,9.699876 19.725876,9.619806 0.188529,-0.03431 2.177928,-3.83185 4.420891,-8.438963 z m 40.704221,-16.111556 -0.834197,-0.53442 2.653546,-4.610014 2.653546,-4.610014 0.743561,0.38451 c 0.408959,0.211481 0.815028,0.500148 0.902378,0.641483 0.08735,0.141335 -1.006428,2.282901 -2.430619,4.759036 -1.424189,2.476134 -2.648966,4.502462 -2.721726,4.502952 -0.07276,5.29e-4 -0.50768,-0.239602 -0.966489,-0.533533 z"
         id="path6571" />
      <path
         style="fill:#4b3b0a;stroke-width:0.264583"
         d="m 78.319443,122.24782 c -1.837862,-0.18901 -4.923674,-0.95655 -6.309731,-1.56944 -3.891584,-1.72079 -7.655213,-5.19002 -9.512752,-8.76866 -1.959775,-3.7756 -1.97494,-3.8933 -2.099194,-16.292626 l -0.110913,-11.067933 11.728275,0.107555 c 11.137991,0.10214 11.833141,0.137137 13.811878,0.695347 1.145984,0.323286 2.693797,0.894135 3.439583,1.268558 3.950481,1.983327 7.229317,5.237284 9.020353,8.95191 0.631475,1.309687 1.301387,3.036093 1.488694,3.836458 0.492504,2.104491 0.420544,6.649241 -0.138237,8.731251 -0.253863,0.94588 -0.954556,2.67229 -1.557097,3.83646 -0.787567,1.52165 -1.692256,2.71883 -3.218299,4.25877 -1.227569,1.23875 -2.92858,2.61644 -4.033576,3.26689 -2.317866,1.3644 -5.09719,2.27976 -8.044008,2.64925 -2.174962,0.27272 -2.649223,0.28294 -4.464976,0.0962 z m 6.295009,-1.02664 c 1.168929,-0.23662 3.108598,-0.92869 4.544489,-1.62148 2.135206,-1.0302 2.861204,-1.56505 4.916569,-3.62209 1.950051,-1.95164 2.623347,-2.84372 3.518914,-4.66237 0.609108,-1.23693 1.281848,-3.0824 1.494983,-4.10104 0.820124,-3.91969 0.269415,-8.172281 -1.524725,-11.773961 -0.612005,-1.228582 -1.57462,-2.438358 -3.370239,-4.235585 -2.708346,-2.710773 -4.639445,-3.920847 -8.069792,-5.056733 -1.803635,-0.597236 -2.154888,-0.615619 -13.427604,-0.702789 l -11.575521,-0.08951 v 9.948254 c 0,12.481284 0.191727,13.688044 2.800387,17.626104 0.636503,0.96087 2.047748,2.5929 3.136101,3.62673 1.485133,1.41073 2.592184,2.17597 4.437314,3.06724 1.352169,0.65316 3.291927,1.36291 4.310573,1.57723 2.467473,0.51915 6.299687,0.52784 8.808551,0.02 z M 16.050946,108.73555 c -0.06745,-0.10914 6.938839,-0.19844 15.569537,-0.19844 8.630698,0 15.636989,0.0893 15.569537,0.19844 -0.06745,0.10914 -7.073745,0.19844 -15.569537,0.19844 -8.495792,0 -15.502084,-0.0893 -15.569537,-0.19844 z m 8.293495,-28.537862 v -11.00922 l 4.828646,0.123595 c 5.6348,0.144227 6.808134,0.444781 8.554646,2.191293 0.869061,0.869061 1.189575,1.445156 1.449026,2.604508 0.261395,1.168034 0.265411,1.791263 0.01865,2.89389 -0.172969,0.772896 -0.614474,1.846737 -0.981126,2.386312 -0.366651,0.539578 -1.315143,1.347041 -2.107761,1.794367 -1.382389,0.780172 -1.420886,0.831186 -0.944604,1.251709 0.273084,0.241113 1.771602,2.318414 3.33004,4.616225 l 2.833524,4.177837 -2.338959,-0.0768 -2.338959,-0.0768 -2.180104,-3.307292 c -1.199054,-1.81901 -2.484053,-3.694245 -2.85555,-4.167187 -0.599858,-0.763667 -0.822232,-0.859896 -1.987084,-0.859896 h -1.311638 v 4.233333 4.233333 h -1.984375 -1.984375 z m 9.005917,-0.963178 c 1.343679,-0.677577 2.105528,-1.907599 2.106174,-3.400457 5.29e-4,-1.269831 -0.968772,-2.668524 -2.12542,-3.066902 -0.504282,-0.173686 -1.839613,-0.322514 -2.9674,-0.330729 l -2.050521,-0.01493 v 3.704166 3.704167 h 1.928313 c 1.473552,0 2.206723,-0.140393 3.108854,-0.595312 z m 21.35409,-8.532813 -6.28219,-12.567708 6.283251,-12.56983 6.283251,-12.569828 15.181523,0.06826 15.181524,0.06827 6.253909,12.505481 6.253914,12.505481 -6.290985,12.56379 -6.290982,12.563789 H 76.132151 60.986641 Z m 29.700412,-4.7625 v -1.719791 h -5.688542 -5.688542 v -8.874242 -8.874241 l -2.182813,0.07684 -2.182812,0.07685 -0.06918,10.517187 -0.06918,10.517188 h 7.940538 7.940535 z M 16.050946,58.59701 c 0.06745,-0.109141 7.073745,-0.198438 15.569537,-0.198438 8.495792,0 15.502084,0.0893 15.569537,0.198438 0.06745,0.10914 -6.938839,0.198437 -15.569537,0.198437 -8.630698,0 -15.636989,-0.0893 -15.569537,-0.198437 z m 88.991414,-0.727605 v -1.058333 h 5.29167 5.29166 v 1.058333 1.058334 h -5.29166 -5.29167 z M 37.030805,52.75502 c -5.319009,-2.644119 -10.274078,-5.252524 -11.011264,-5.796452 -0.737185,-0.54393 -2.126793,-1.822651 -3.088019,-2.841601 -1.264577,-1.340517 -2.074414,-2.529898 -2.929668,-4.302702 -1.636262,-3.391712 -2.102031,-5.31232 -2.102031,-8.667776 0,-3.21886 0.480564,-5.310482 1.845897,-8.034138 2.302693,-4.593562 5.891502,-7.717797 10.65043,-9.271723 5.218798,-1.704087 9.164879,-1.603213 14.253084,0.364352 6.298324,2.435508 10.828356,7.699881 12.529209,14.560259 0.480912,1.939759 0.416898,6.0701 -0.127122,8.202083 -0.49635,1.945169 -9.637747,20.650137 -10.075516,20.616344 -0.150739,-0.01164 -4.625988,-2.184527 -9.945,-4.828646 z m 14.170012,-4.717394 c 2.242966,-4.607115 4.34739,-9.13149 4.6765,-10.054166 0.505971,-1.418506 0.597728,-2.208811 0.594135,-5.117179 -0.0037,-3.02014 -0.09068,-3.697703 -0.713025,-5.556251 C 55.3686,26.145864 54.600118,24.419458 54.050692,23.473572 53.501264,22.527687 52.03294,20.725332 50.787744,19.468339 48.814072,17.475965 48.169438,17.0123 45.760661,15.852515 44.24096,15.120804 42.164129,14.3177 41.145483,14.067839 c -2.382951,-0.584506 -6.556314,-0.582517 -8.863541,0.0042 -0.945886,0.240544 -2.834286,0.975066 -4.196443,1.63227 -1.91766,0.92522 -2.878485,1.596753 -4.257016,2.975284 -2.012193,2.012192 -3.670105,4.639379 -4.527984,7.175205 -0.727186,2.149508 -0.976845,6.204776 -0.525076,8.528931 0.957021,4.923465 4.262807,9.904143 8.278627,12.47303 1.937909,1.239668 19.28598,9.699876 19.725876,9.619806 0.188529,-0.03431 2.177928,-3.83185 4.420891,-8.438963 z m 40.704221,-16.111556 -0.834197,-0.53442 2.653546,-4.610014 2.653546,-4.610014 0.743561,0.38451 c 0.408959,0.211481 0.815028,0.500148 0.902378,0.641483 0.08735,0.141335 -1.006428,2.282901 -2.430619,4.759036 -1.424189,2.476134 -2.648966,4.502462 -2.721726,4.502952 -0.07276,5.29e-4 -0.50768,-0.239602 -0.966489,-0.533533 z"
         id="path6569" />
      <path
         style="fill:#2e2e2e;stroke-width:0.264583"
         d="m 78.319443,122.24782 c -1.837862,-0.18901 -4.923674,-0.95655 -6.309731,-1.56944 -3.891584,-1.72079 -7.655213,-5.19002 -9.512752,-8.76866 -1.959775,-3.7756 -1.97494,-3.8933 -2.099194,-16.292626 l -0.110913,-11.067933 11.728275,0.107555 c 11.137991,0.10214 11.833141,0.137137 13.811878,0.695347 1.145984,0.323286 2.693797,0.894135 3.439583,1.268558 3.950481,1.983327 7.229317,5.237284 9.020353,8.95191 0.631475,1.309687 1.301387,3.036093 1.488694,3.836458 0.492504,2.104491 0.420544,6.649241 -0.138237,8.731251 -0.253863,0.94588 -0.954556,2.67229 -1.557097,3.83646 -0.787567,1.52165 -1.692256,2.71883 -3.218299,4.25877 -1.227569,1.23875 -2.92858,2.61644 -4.033576,3.26689 -2.317866,1.3644 -5.09719,2.27976 -8.044008,2.64925 -2.174962,0.27272 -2.649223,0.28294 -4.464976,0.0962 z m 6.295009,-1.02664 c 1.168929,-0.23662 3.108598,-0.92869 4.544489,-1.62148 2.135206,-1.0302 2.861204,-1.56505 4.916569,-3.62209 1.950051,-1.95164 2.623347,-2.84372 3.518914,-4.66237 0.609108,-1.23693 1.281848,-3.0824 1.494983,-4.10104 0.820124,-3.91969 0.269415,-8.172281 -1.524725,-11.773961 -0.612005,-1.228582 -1.57462,-2.438358 -3.370239,-4.235585 -2.708346,-2.710773 -4.639445,-3.920847 -8.069792,-5.056733 -1.803635,-0.597236 -2.154888,-0.615619 -13.427604,-0.702789 l -11.575521,-0.08951 v 9.948254 c 0,12.481284 0.191727,13.688044 2.800387,17.626104 0.636503,0.96087 2.047748,2.5929 3.136101,3.62673 1.485133,1.41073 2.592184,2.17597 4.437314,3.06724 1.352169,0.65316 3.291927,1.36291 4.310573,1.57723 2.467473,0.51915 6.299687,0.52784 8.808551,0.02 z M 16.050946,108.73555 c -0.06745,-0.10914 6.938839,-0.19844 15.569537,-0.19844 8.630698,0 15.636989,0.0893 15.569537,0.19844 -0.06745,0.10914 -7.073745,0.19844 -15.569537,0.19844 -8.495792,0 -15.502084,-0.0893 -15.569537,-0.19844 z M 24.344441,80.226697 V 69.246489 l 3.638021,0.0021 c 4.200134,0.0024 6.557016,0.321752 8.101746,1.098087 1.466437,0.736987 1.974892,1.217552 2.614798,2.471373 0.744783,1.459317 0.740513,4.105979 -0.009,5.575133 -0.648063,1.270304 -2.413852,2.941363 -3.358693,3.178503 -0.367469,0.09223 -0.668128,0.255392 -0.668128,0.362583 0,0.10719 0.253958,0.421706 0.564348,0.69892 0.530265,0.47347 5.785655,8.135567 5.785655,8.435081 0,0.07624 -0.954059,0.13862 -2.120128,0.13862 H 36.772937 L 34.100658,87.17201 c -1.469752,-2.219193 -2.807647,-4.12237 -2.973101,-4.229283 -0.165452,-0.106913 -0.866371,-0.19621 -1.557595,-0.198437 l -1.256771,-0.0041 v 4.233333 4.233333 h -1.984375 -1.984375 z m 8.805895,-0.75965 c 0.468267,-0.199528 1.149054,-0.685369 1.512856,-1.079651 0.560033,-0.606952 0.661458,-0.973048 0.661458,-2.387571 0,-1.296487 -0.118525,-1.803622 -0.529167,-2.264159 -0.843933,-0.946472 -2.063051,-1.314177 -4.357126,-1.314177 h -2.125166 v 3.704166 3.704167 h 1.992874 c 1.097833,0 2.375252,-0.16293 2.844271,-0.362775 z m 21.688267,-8.76535 -6.282193,-12.567708 6.282193,-12.567708 6.28219,-12.567709 h 15.081983 15.081983 l 6.282191,12.567709 6.28219,12.567708 -6.28219,12.567708 -6.282191,12.567708 H 76.202776 61.120793 Z m 29.566257,-4.7625 v -1.719791 h -5.552684 -5.552683 l -0.06971,-8.797396 -0.06971,-8.797396 -2.315105,-0.07645 -2.315104,-0.07645 V 57.06535 67.658984 h 7.9375 7.937501 z M 16.050946,58.59701 c 0.06745,-0.109141 7.073745,-0.198438 15.569537,-0.198438 8.495792,0 15.502084,0.0893 15.569537,0.198438 0.06745,0.10914 -6.938839,0.198437 -15.569537,0.198437 -8.630698,0 -15.636989,-0.0893 -15.569537,-0.198437 z m 88.991414,-0.727605 v -1.058333 h 5.29167 5.29166 v 1.058333 1.058334 h -5.29166 -5.29167 z M 37.030805,52.75502 c -5.319009,-2.644119 -10.274078,-5.252524 -11.011264,-5.796452 -0.737185,-0.54393 -2.126793,-1.822651 -3.088019,-2.841601 -1.264577,-1.340517 -2.074414,-2.529898 -2.929668,-4.302702 -1.636262,-3.391712 -2.102031,-5.31232 -2.102031,-8.667776 0,-3.21886 0.480564,-5.310482 1.845897,-8.034138 2.302693,-4.593562 5.891502,-7.717797 10.65043,-9.271723 5.218798,-1.704087 9.164879,-1.603213 14.253084,0.364352 6.298324,2.435508 10.828356,7.699881 12.529209,14.560259 0.480912,1.939759 0.416898,6.0701 -0.127122,8.202083 -0.49635,1.945169 -9.637747,20.650137 -10.075516,20.616344 -0.150739,-0.01164 -4.625988,-2.184527 -9.945,-4.828646 z m 14.170012,-4.717394 c 2.242966,-4.607115 4.34739,-9.13149 4.6765,-10.054166 0.505971,-1.418506 0.597728,-2.208811 0.594135,-5.117179 -0.0037,-3.02014 -0.09068,-3.697703 -0.713025,-5.556251 C 55.3686,26.145864 54.600118,24.419458 54.050692,23.473572 53.501264,22.527687 52.03294,20.725332 50.787744,19.468339 48.814072,17.475965 48.169438,17.0123 45.760661,15.852515 44.24096,15.120804 42.164129,14.3177 41.145483,14.067839 c -2.382951,-0.584506 -6.556314,-0.582517 -8.863541,0.0042 -0.945886,0.240544 -2.834286,0.975066 -4.196443,1.63227 -1.91766,0.92522 -2.878485,1.596753 -4.257016,2.975284 -2.012193,2.012192 -3.670105,4.639379 -4.527984,7.175205 -0.727186,2.149508 -0.976845,6.204776 -0.525076,8.528931 0.957021,4.923465 4.262807,9.904143 8.278627,12.47303 1.937909,1.239668 19.28598,9.699876 19.725876,9.619806 0.188529,-0.03431 2.177928,-3.83185 4.420891,-8.438963 z m 40.704221,-16.111556 -0.834197,-0.53442 2.653546,-4.610014 2.653546,-4.610014 0.743561,0.38451 c 0.408959,0.211481 0.815028,0.500148 0.902378,0.641483 0.08735,0.141335 -1.006428,2.282901 -2.430619,4.759036 -1.424189,2.476134 -2.648966,4.502462 -2.721726,4.502952 -0.07276,5.29e-4 -0.50768,-0.239602 -0.966489,-0.533533 z"
         id="path6567" />
      <path
         style="fill:#0c0c0b;stroke-width:0.264583"
         d="m 78.187151,122.14939 c -1.018646,-0.10216 -2.605902,-0.379 -3.527234,-0.61519 -3.617971,-0.92751 -7.85484,-3.70944 -10.258667,-6.73586 -1.374195,-1.73011 -3.088997,-5.13632 -3.551711,-7.05498 -0.210198,-0.87158 -0.362106,-5.05515 -0.445264,-12.262637 l -0.12622,-10.939727 11.600382,0.115985 c 10.859878,0.108582 11.735496,0.152543 13.717048,0.688665 1.164166,0.314976 2.853695,0.933136 3.754509,1.373685 2.225781,1.088544 5.096796,3.383624 6.70886,5.363044 1.555435,1.909884 2.982259,4.680635 3.56853,6.929739 0.555176,2.129796 0.553466,6.906826 -0.0032,8.995836 -0.585351,2.19659 -1.695262,4.46512 -3.131378,6.40018 -1.291196,1.73979 -4.073223,4.19325 -5.939314,5.23787 -3.587528,2.00825 -8.131564,2.92813 -12.366323,2.50339 z m 8.466667,-1.41875 c 1.164167,-0.39531 2.652448,-1.02577 3.307292,-1.40104 2.054286,-1.17723 4.642652,-3.41705 5.954871,-5.15299 2.695155,-3.56543 3.720799,-6.94952 3.501951,-11.55464 -0.155657,-3.27542 -0.766606,-5.44671 -2.23992,-7.960582 -1.300385,-2.21881 -4.270833,-5.14644 -6.666339,-6.57025 -1.04694,-0.622266 -2.8195,-1.455703 -3.939024,-1.852084 l -2.035498,-0.72069 -11.721431,-0.08128 -11.721433,-0.08128 0.08597,10.929197 c 0.08213,10.440919 0.111974,11.006029 0.66807,12.648989 0.841933,2.48744 2.334572,4.86913 4.300281,6.86164 2.006944,2.03429 4.138994,3.50518 6.433209,4.43821 2.782396,1.13158 4.497716,1.39818 8.383458,1.30302 3.044712,-0.0746 3.884269,-0.19355 5.688543,-0.80622 z M 16.050946,108.73555 c -0.06745,-0.10914 6.938839,-0.19844 15.569537,-0.19844 8.630698,0 15.636989,0.0893 15.569537,0.19844 -0.06745,0.10914 -7.073745,0.19844 -15.569537,0.19844 -8.495792,0 -15.502084,-0.0893 -15.569537,-0.19844 z M 24.344441,80.226697 V 69.246489 l 3.638021,0.0021 c 4.200134,0.0024 6.557016,0.321752 8.101746,1.098087 1.466437,0.736987 1.974892,1.217552 2.614798,2.471373 0.744783,1.459317 0.740513,4.105979 -0.009,5.575133 -0.648063,1.270304 -2.413852,2.941363 -3.358693,3.178503 -0.367469,0.09223 -0.668128,0.255392 -0.668128,0.362583 0,0.10719 0.253958,0.421706 0.564348,0.69892 0.530265,0.47347 5.785655,8.135567 5.785655,8.435081 0,0.07624 -0.954059,0.13862 -2.120128,0.13862 H 36.772937 L 34.100658,87.17201 c -1.469752,-2.219193 -2.807647,-4.12237 -2.973101,-4.229283 -0.165452,-0.106913 -0.866371,-0.19621 -1.557595,-0.198437 l -1.256771,-0.0041 v 4.233333 4.233333 h -1.984375 -1.984375 z m 8.805895,-0.75965 c 0.468267,-0.199528 1.149054,-0.685369 1.512856,-1.079651 0.560033,-0.606952 0.661458,-0.973048 0.661458,-2.387571 0,-1.296487 -0.118525,-1.803622 -0.529167,-2.264159 -0.843933,-0.946472 -2.063051,-1.314177 -4.357126,-1.314177 h -2.125166 v 3.704166 3.704167 h 1.992874 c 1.097833,0 2.375252,-0.16293 2.844271,-0.362775 z m 21.688267,-8.76535 -6.282193,-12.567708 6.282193,-12.567708 6.28219,-12.567709 h 15.081983 15.081983 l 6.282191,12.567709 6.28219,12.567708 -6.28219,12.567708 -6.282191,12.567708 H 76.202776 61.120793 Z m 29.566257,-4.7625 v -1.719791 h -5.552684 -5.552683 l -0.06971,-8.797396 -0.06971,-8.797396 -2.315105,-0.07645 -2.315104,-0.07645 V 57.06535 67.658984 h 7.9375 7.937501 z M 16.050946,58.59701 c 0.06745,-0.109141 7.073745,-0.198438 15.569537,-0.198438 8.495792,0 15.502084,0.0893 15.569537,0.198438 0.06745,0.10914 -6.938839,0.198437 -15.569537,0.198437 -8.630698,0 -15.636989,-0.0893 -15.569537,-0.198437 z m 88.991414,-0.727605 v -1.058333 h 5.29167 5.29166 v 1.058333 1.058334 h -5.29166 -5.29167 z M 38.102775,53.212257 c -4.874948,-2.392069 -9.624886,-4.793332 -10.555415,-5.33614 -2.409334,-1.405438 -5.100072,-4.002331 -6.538913,-6.310855 -1.470352,-2.359083 -2.634568,-5.585963 -3.023049,-8.379037 -0.654323,-4.704402 0.983978,-9.968551 4.330549,-13.914818 3.534967,-4.168424 8.556882,-6.394126 14.596203,-6.469006 2.29067,-0.0284 3.386262,0.09304 5.145053,0.570294 2.373988,0.644192 5.117309,1.908648 7.098975,3.272069 0.663149,0.456259 1.881124,1.515527 2.706608,2.353928 3.936998,3.998597 6.189716,10.38722 5.526482,15.672886 -0.131045,1.044376 -0.424749,2.494182 -0.652674,3.221786 -0.451766,1.442172 -9.389401,19.725084 -9.625391,19.689786 -0.07969,-0.01192 -4.13348,-1.978821 -9.008428,-4.370893 z m 13.282544,-5.463164 c 2.756403,-5.687539 4.555128,-9.731536 4.830432,-10.860056 0.614447,-2.518714 0.558184,-6.167399 -0.133318,-8.645724 -1.04806,-3.756215 -3.455834,-7.521142 -6.363658,-9.950561 -3.885975,-3.246639 -9.775243,-5.187644 -14.362682,-4.7337 -2.587352,0.256027 -5.993641,1.281589 -8.078849,2.432369 -1.020469,0.563176 -2.565538,1.791462 -3.729742,2.96504 -1.489992,1.501991 -2.268133,2.56658 -3.108304,4.252528 -0.616407,1.236927 -1.303801,2.963333 -1.527543,3.836458 -0.477706,1.864189 -0.547169,5.807316 -0.134484,7.634087 0.49495,2.190916 1.824614,5.319355 2.952917,6.947635 1.444317,2.084327 2.683669,3.356478 4.641371,4.764204 0.896578,0.644702 5.837672,3.243823 10.980209,5.775822 5.142537,2.532002 9.415719,4.612691 9.495965,4.623758 0.08024,0.01106 2.122204,-4.057771 4.537686,-9.04186 z M 91.879339,31.8819 c -0.327422,-0.15791 -0.595312,-0.380691 -0.595312,-0.49507 0,-0.227671 4.689951,-8.438006 5.024307,-8.795669 0.113607,-0.121524 0.585055,-0.02523 1.047661,0.213999 l 0.841105,0.434952 -0.490853,0.844334 c -0.26997,0.464384 -1.434899,2.481444 -2.588728,4.482355 -1.153832,2.000912 -2.2205,3.629962 -2.37037,3.620114 -0.149874,-0.0098 -0.540388,-0.147106 -0.86781,-0.305015 z"
         id="path6565" />
      <path
         style="fill:#000000;stroke-width:0.264583"
         d="m 78.236713,122.10923 c -1.136907,-0.10371 -2.770108,-0.36866 -3.629337,-0.58878 -4.79074,-1.22734 -10.04274,-5.49556 -12.339625,-10.02825 -0.358426,-0.70732 -0.900091,-2.19735 -1.203698,-3.31119 -0.506222,-1.85714 -0.561885,-2.91958 -0.670973,-12.806917 l -0.118957,-10.781771 9.617973,0.0068 c 10.073994,0.0071 13.774343,0.221174 16.301678,0.942872 2.223167,0.634841 5.290317,2.301222 7.146602,3.882745 3.24004,2.760456 5.442773,6.209056 6.284683,9.839304 0.227848,0.982457 0.414271,2.893147 0.414271,4.245957 0,1.35282 -0.186423,3.2635 -0.414271,4.24596 -0.881978,3.80303 -3.125148,7.27553 -6.40347,9.9128 -2.286892,1.83972 -4.971667,3.27532 -7.186356,3.8427 -2.216724,0.5679 -5.427631,0.814 -7.79852,0.59774 z m 6.746161,-0.87293 c 2.333403,-0.47943 5.623457,-2.05831 7.671686,-3.6816 0.826556,-0.65506 2.127293,-1.93997 2.890528,-2.85535 1.635811,-1.96188 3.251515,-5.2637 3.654182,-7.4676 0.368088,-2.01465 0.368075,-5.81217 -2.6e-5,-7.611301 -0.157777,-0.771147 -0.810742,-2.494097 -1.451036,-3.828775 -0.903209,-1.882724 -1.595094,-2.86889 -3.086571,-4.399383 -1.05732,-1.084979 -2.672303,-2.455309 -3.588846,-3.045174 -1.831512,-1.178714 -4.445437,-2.236391 -6.614808,-2.67656 C 83.591554,85.494758 78.86595,85.386072 72.088712,85.386072 H 61.121526 l 0.0039,10.384896 c 0.0031,8.215752 0.0854,10.730502 0.394025,12.039482 0.8158,3.46007 3.352871,7.30267 6.433614,9.74425 1.968619,1.56019 5.304504,3.19668 7.45595,3.65766 2.341076,0.50162 7.19001,0.51374 9.573848,0.0239 z M 23.900359,108.73568 c 4.339662,-0.0408 11.36435,-0.0408 15.610417,6e-5 4.246068,0.0408 0.695437,0.0742 -7.890293,0.0742 -8.585729,-4e-5 -12.059785,-0.0335 -7.720124,-0.0743 z M 24.344441,80.186663 V 69.166421 l 4.564063,0.155897 c 4.803307,0.164071 6.442612,0.47919 7.982728,1.534494 0.474313,0.325003 1.14636,1.00535 1.493438,1.511877 0.471683,0.688377 0.656609,1.3732 0.732237,2.71168 0.05638,0.997783 -0.04273,2.226783 -0.223822,2.775503 -0.429791,1.302276 -1.838526,2.828044 -3.162252,3.424962 -0.587203,0.26479 -1.067641,0.567841 -1.067641,0.673442 0,0.1056 0.196225,0.354856 0.436057,0.553897 0.362699,0.301014 5.590222,7.871142 5.869845,8.500295 0.116009,0.261022 -3.698547,0.249965 -4.110546,-0.01191 -0.175003,-0.111236 -1.510586,-2.014413 -2.967958,-4.229283 l -2.649773,-4.02704 h -1.463813 -1.463813 v 4.233333 4.233333 h -1.984375 -1.984375 z m 9.204812,-0.860827 c 0.539907,-0.277191 1.190006,-0.86111 1.444668,-1.297594 0.593368,-1.017018 0.599204,-3.04561 0.01161,-4.040301 -0.689277,-1.16687 -1.81606,-1.566452 -4.417227,-1.566452 h -2.275118 v 3.704166 3.704167 h 2.127208 c 1.571826,0 2.383499,-0.131582 3.108854,-0.503986 z M 16.10473,58.594856 c 0.110377,-0.110323 7.158919,-0.169823 15.663428,-0.132218 L 47.2309,58.531012 31.567474,58.66323 c -8.614885,0.07272 -15.57312,0.04195 -15.462744,-0.06837 z m 88.93763,-0.725451 v -1.058333 h 5.29167 5.29166 v 1.058333 1.058334 h -5.29166 -5.29167 z M 36.91215,52.581247 C 26.050995,47.201982 24.546331,46.238685 22.161665,43.137874 c -1.564429,-2.034249 -2.974037,-4.879351 -3.664615,-7.39653 -0.698341,-2.545475 -0.74879,-6.352562 -0.116987,-8.828189 0.2414,-0.945885 0.933939,-2.731822 1.538976,-3.96875 0.869203,-1.77698 1.577371,-2.733389 3.3744,-4.557256 1.957379,-1.986612 2.62234,-2.472655 4.77152,-3.487671 1.373455,-0.648655 3.330628,-1.379423 4.349274,-1.623929 2.490849,-0.597879 6.895439,-0.612992 9.096111,-0.03121 4.024196,1.063857 6.897608,2.628726 9.744681,5.306983 4.010853,3.773032 6.195611,8.769909 6.181871,14.138893 -0.0036,1.41107 -0.188651,3.268868 -0.41283,4.144817 -0.223459,0.873125 -2.518336,5.899194 -5.099727,11.169046 -2.581392,5.269849 -4.75297,9.575967 -4.82573,9.569149 -0.07276,-0.0068 -4.656667,-2.253211 -10.186459,-4.991979 z m 14.147578,-4.038404 c 2.225019,-4.547526 4.322543,-9.001659 4.661162,-9.898073 0.875462,-2.317581 1.22282,-5.473343 0.876512,-7.963188 -0.3399,-2.443792 -1.46494,-5.620876 -2.717385,-7.673813 -2.120437,-3.475708 -5.455235,-6.276078 -9.454325,-7.939197 -1.07651,-0.447693 -2.964817,-1.017804 -4.196241,-1.266914 -5.509348,-1.114513 -12.008909,0.669985 -15.984038,4.388523 -1.979832,1.852035 -2.984794,3.18913 -4.126532,5.490316 -1.142854,2.303435 -1.659808,4.621233 -1.665194,7.465992 -0.0059,3.094738 0.693287,5.830012 2.259802,8.841052 1.31319,2.524117 3.796041,5.265214 6.201911,6.84698 0.929037,0.610807 5.761022,3.098588 10.737745,5.528403 4.976725,2.429814 9.118902,4.424661 9.204841,4.432995 0.08594,0.0083 1.976723,-3.70555 4.201742,-8.253076 z m 40.82621,-16.806925 -0.588714,-0.457138 2.529605,-4.365625 c 1.391285,-2.401093 2.562812,-4.399108 2.603399,-4.440031 0.04059,-0.04092 0.428607,0.129228 0.862269,0.378115 l 0.788474,0.452523 -2.538576,4.443501 c -1.396217,2.443926 -2.657639,4.444018 -2.80316,4.444647 -0.145521,5.3e-4 -0.529505,-0.204567 -0.853297,-0.455992 z"
         id="path6563" />
    </g>
  </g>
</svg>
